<svg id="svg" version="1.1" xmlns="http://www.w3.org/2000/svg" xmlns:xlink="http://www.w3.org/1999/xlink" width="400" height="383.33333333333337" viewBox="0, 0, 400,383.33333333333337"><g id="svgg"><path id="path0" d="M180.391 18.757 C 180.175 19.834,180.038 19.913,178.192 20.020 C 176.516 20.117,176.222 20.249,176.222 20.901 C 176.222 21.453,175.926 21.702,175.168 21.790 C 174.164 21.905,174.113 22.009,174.113 23.964 C 174.113 25.934,174.066 26.028,172.963 26.270 C 171.874 26.509,171.812 26.625,171.812 28.410 C 171.812 30.263,171.561 30.560,170.182 30.343 C 170.024 30.318,169.895 30.729,169.895 31.256 C 169.895 32.018,169.702 32.215,168.953 32.215 C 167.947 32.215,167.280 34.043,167.700 35.649 C 167.851 36.226,167.670 36.416,166.881 36.508 C 165.950 36.616,165.858 36.785,165.753 38.594 C 165.649 40.395,165.549 40.581,164.591 40.773 C 163.643 40.963,163.537 41.154,163.465 42.793 C 163.375 44.856,163.357 44.891,162.294 44.971 C 161.863 45.003,161.519 45.123,161.529 45.238 C 161.620 46.233,161.313 46.741,160.499 46.946 C 159.636 47.162,159.540 47.379,159.540 49.096 C 159.540 51.026,159.431 51.151,157.777 51.120 C 157.535 51.115,157.327 51.938,157.288 53.056 C 157.221 54.944,156.728 55.764,155.853 55.445 C 155.618 55.360,155.426 55.577,155.426 55.929 C 155.426 57.371,155.308 57.604,154.697 57.369 C 153.684 56.980,153.020 57.880,153.020 59.642 C 153.020 61.196,152.335 62.078,151.519 61.574 C 151.364 61.478,151.197 62.293,151.147 63.385 C 151.044 65.644,150.989 65.745,149.836 65.760 C 149.062 65.771,149.002 65.936,149.106 67.785 C 149.206 69.576,149.134 69.799,148.457 69.799 C 148.039 69.799,147.559 70.014,147.392 70.278 C 147.093 70.750,147.027 70.954,146.932 71.716 C 146.906 71.927,146.453 72.100,145.925 72.100 C 145.030 72.100,144.966 72.228,144.966 74.017 C 144.966 75.072,144.794 75.956,144.583 75.983 C 144.372 76.009,144.021 76.052,143.802 76.079 C 142.191 76.273,142.205 80.153,143.816 80.153 C 144.907 80.153,145.206 80.638,145.029 82.115 C 145.013 82.245,145.381 82.332,145.846 82.307 C 146.498 82.273,146.720 82.505,146.814 83.317 C 146.929 84.322,147.033 84.372,148.993 84.372 C 150.954 84.372,151.057 84.422,151.173 85.427 C 151.290 86.444,151.366 86.477,153.308 86.374 C 155.355 86.265,155.555 86.442,155.393 88.223 C 155.383 88.338,155.727 88.458,156.158 88.490 C 157.111 88.562,157.268 88.703,157.398 89.610 C 157.462 90.055,157.877 90.361,158.519 90.438 C 159.360 90.538,159.540 90.754,159.540 91.664 C 159.540 92.727,159.617 92.774,161.553 92.885 C 163.272 92.984,163.567 93.113,163.567 93.768 C 163.567 94.320,163.863 94.569,164.621 94.656 C 165.605 94.770,165.944 95.424,165.713 96.766 C 165.683 96.938,166.051 97.024,166.530 96.957 C 167.233 96.860,167.425 97.041,167.523 97.891 C 167.639 98.897,167.740 98.945,169.728 98.945 C 171.755 98.945,171.998 99.104,171.852 100.334 C 171.824 100.571,172.321 100.869,172.957 100.996 C 173.877 101.180,174.113 101.425,174.113 102.196 C 174.113 103.115,174.221 103.164,176.245 103.164 C 177.628 103.164,178.290 103.305,178.130 103.564 C 177.660 104.324,178.790 105.081,180.394 105.081 C 181.775 105.081,182.043 105.225,182.472 106.194 C 182.950 107.273,183.046 107.306,185.729 107.303 L 188.495 107.301 188.592 105.359 C 188.701 103.164,188.712 103.143,189.718 103.067 C 190.144 103.035,190.475 102.704,190.508 102.278 C 190.575 101.376,190.725 101.217,191.624 101.087 C 192.187 101.006,192.353 100.585,192.446 99.006 C 192.558 97.098,192.602 97.028,193.692 97.028 C 194.805 97.028,194.823 96.995,194.823 94.945 C 194.823 93.077,194.912 92.850,195.686 92.740 C 196.303 92.652,196.583 92.318,196.670 91.563 C 196.771 90.680,196.974 90.508,197.916 90.508 C 199.008 90.508,199.041 90.453,199.041 88.617 C 199.041 86.948,199.143 86.712,199.904 86.604 C 200.656 86.497,200.782 86.222,200.883 84.468 C 200.947 83.360,201.162 82.433,201.362 82.407 C 201.562 82.380,201.898 82.315,202.109 82.263 C 202.320 82.210,202.663 82.145,202.872 82.119 C 203.080 82.093,203.210 81.695,203.159 81.236 C 203.093 80.625,203.326 80.337,204.027 80.165 C 204.617 80.021,205.032 79.614,205.105 79.108 C 205.185 78.555,205.593 78.206,206.351 78.039 C 207.220 77.848,207.478 77.578,207.478 76.863 C 207.478 76.005,207.623 75.935,209.396 75.935 C 211.186 75.935,211.314 75.871,211.314 74.976 C 211.314 73.572,215.403 73.481,215.601 74.880 C 215.719 75.706,215.901 75.748,219.847 75.852 L 223.969 75.961 223.969 77.098 C 223.969 78.221,223.996 78.236,226.079 78.236 C 228.073 78.236,228.188 78.288,228.188 79.195 C 228.188 80.137,228.239 80.153,231.256 80.153 C 233.014 80.153,234.345 80.317,234.372 80.537 C 234.467 81.300,234.533 81.504,234.832 81.975 C 234.999 82.239,235.471 82.454,235.881 82.454 C 236.415 82.454,236.625 82.720,236.625 83.393 C 236.625 84.255,236.790 84.341,238.639 84.448 C 240.115 84.533,240.655 84.717,240.662 85.139 C 240.684 86.396,241.250 86.717,242.987 86.456 L 244.679 86.202 244.679 87.397 C 244.679 88.053,244.808 88.570,244.966 88.545 C 246.327 88.330,246.980 88.656,246.980 89.549 C 246.980 90.456,247.095 90.508,249.089 90.508 C 251.223 90.508,251.518 90.784,251.244 92.522 C 251.219 92.680,251.328 92.789,251.486 92.764 C 252.486 92.606,253.063 92.930,253.273 93.768 C 253.452 94.480,253.768 94.727,254.500 94.727 C 255.418 94.727,255.480 94.839,255.400 96.357 C 255.273 98.773,255.334 98.945,256.328 98.945 C 257.036 98.945,257.291 99.205,257.472 100.114 C 257.641 100.954,257.896 101.251,258.383 101.169 C 258.945 101.074,259.077 101.380,259.157 102.972 C 259.343 106.673,259.577 107.383,260.612 107.383 L 261.553 107.383 261.553 111.601 L 261.553 115.820 260.416 115.820 L 259.278 115.820 259.169 119.942 C 259.091 122.895,258.924 124.079,258.581 124.113 C 258.317 124.140,257.938 124.183,257.738 124.209 C 257.538 124.235,257.323 125.163,257.259 126.270 C 257.171 127.799,257.008 128.254,256.582 128.161 C 255.878 128.006,255.017 129.138,255.293 129.855 C 255.443 130.246,255.172 130.393,254.308 130.393 C 253.119 130.393,253.116 130.398,253.116 132.502 C 253.116 134.591,252.898 134.880,251.486 134.657 C 251.328 134.632,251.198 135.032,251.198 135.545 C 251.198 136.278,250.972 136.504,250.144 136.600 C 249.424 136.682,249.053 136.970,248.977 137.506 C 248.911 137.967,248.396 138.468,247.730 138.719 C 246.252 139.277,246.217 140.608,247.651 141.751 L 248.706 142.592 248.831 152.429 C 248.923 159.671,248.835 162.413,248.496 162.821 C 247.922 163.512,209.882 163.662,208.604 162.978 C 207.976 162.642,207.861 162.154,207.857 159.814 C 207.848 155.021,208.234 155.321,202.065 155.321 C 196.816 155.321,196.739 155.334,196.681 156.184 C 196.564 157.875,196.788 158.971,197.337 159.392 C 197.643 159.626,198.087 160.403,198.324 161.117 C 198.844 162.690,200.143 164.171,203.498 167.019 C 204.367 167.757,205.242 168.360,205.442 168.360 C 205.642 168.360,206.181 168.792,206.640 169.319 C 207.098 169.847,207.735 170.278,208.054 170.278 C 208.373 170.278,209.002 170.701,209.451 171.218 C 209.901 171.735,210.762 172.266,211.366 172.399 C 211.969 172.531,212.687 172.959,212.960 173.349 C 213.233 173.740,213.924 174.176,214.494 174.319 C 215.065 174.462,215.920 174.989,216.395 175.490 C 216.869 175.991,217.481 176.404,217.755 176.408 C 218.028 176.411,218.670 176.832,219.181 177.343 C 219.692 177.854,220.461 178.384,220.891 178.520 C 221.321 178.657,222.146 179.164,222.725 179.648 C 223.304 180.132,224.157 180.647,224.621 180.792 C 225.085 180.937,225.568 181.383,225.695 181.783 C 225.822 182.184,226.306 182.630,226.769 182.774 C 227.233 182.919,228.180 183.532,228.872 184.136 C 229.565 184.740,230.365 185.235,230.650 185.235 C 230.935 185.235,231.450 185.666,231.796 186.194 C 232.142 186.721,232.683 187.152,233.000 187.152 C 233.317 187.152,233.740 187.584,233.941 188.111 C 234.165 188.703,234.606 189.070,235.090 189.070 C 235.555 189.070,236.053 189.461,236.311 190.029 C 236.552 190.556,236.941 190.988,237.177 190.988 C 237.412 190.988,238.054 191.462,238.604 192.042 C 239.153 192.622,240.313 193.762,241.182 194.574 C 242.051 195.387,242.761 196.281,242.761 196.562 C 242.761 196.842,243.106 197.181,243.527 197.315 C 243.949 197.449,244.399 197.978,244.528 198.492 C 244.657 199.005,244.996 199.425,245.282 199.425 C 246.132 199.425,246.719 200.994,246.751 203.351 C 246.780 205.501,246.809 205.561,247.839 205.561 C 249.049 205.561,249.350 204.318,248.284 203.722 C 247.817 203.460,247.977 203.360,248.955 203.299 C 249.662 203.255,250.449 203.199,250.704 203.175 C 250.982 203.149,251.118 202.695,251.042 202.045 L 250.916 200.959 255.084 200.959 L 259.252 200.959 259.252 200.000 C 259.252 199.097,259.371 199.041,261.305 199.041 L 263.358 199.041 263.606 196.107 C 263.743 194.493,263.854 175.516,263.854 153.935 C 263.854 115.533,263.870 114.688,264.596 114.299 C 265.081 114.040,272.435 113.902,285.821 113.902 L 306.304 113.902 307.323 114.777 L 308.341 115.652 308.341 133.906 C 308.341 153.605,308.303 153.242,310.334 152.954 C 310.909 152.872,311.260 152.527,311.340 151.965 C 311.436 151.290,311.712 151.103,312.611 151.103 C 313.474 151.103,313.742 150.936,313.690 150.431 C 313.431 147.885,313.707 146.884,314.669 146.884 C 315.576 146.884,315.628 146.769,315.628 144.775 C 315.628 142.780,315.680 142.665,316.587 142.665 L 317.546 142.665 317.546 138.639 L 317.546 134.612 318.696 134.612 L 319.847 134.612 319.847 126.201 L 319.847 117.791 320.709 117.668 C 321.535 117.551,321.577 117.368,321.681 113.423 L 321.790 109.300 320.818 109.300 L 319.847 109.300 319.847 103.164 L 319.847 97.028 318.716 97.028 C 317.623 97.028,317.582 96.962,317.470 95.014 C 317.369 93.272,317.240 92.985,316.507 92.880 C 315.728 92.770,315.650 92.521,315.548 89.812 C 315.445 87.087,315.371 86.856,314.573 86.742 C 313.799 86.632,313.710 86.405,313.710 84.537 C 313.710 82.479,313.697 82.454,312.560 82.454 C 311.458 82.454,311.120 81.873,311.373 80.413 C 311.404 80.239,311.267 80.196,311.070 80.318 C 310.252 80.823,309.491 80.045,309.465 78.674 C 309.433 77.005,309.089 76.140,308.437 76.088 C 307.328 76.000,307.191 75.899,307.191 75.175 C 307.191 74.685,306.851 74.330,306.232 74.175 C 305.309 73.943,305.109 73.618,305.246 72.573 C 305.281 72.306,305.172 72.111,305.004 72.139 C 303.669 72.364,302.972 72.036,302.972 71.183 C 302.972 70.535,302.702 70.198,302.056 70.035 C 301.500 69.896,301.044 69.426,300.898 68.843 C 300.719 68.132,300.403 67.881,299.682 67.881 C 299.125 67.881,298.811 67.716,298.947 67.494 C 299.411 66.744,298.722 65.580,297.814 65.580 C 297.237 65.580,296.852 65.301,296.717 64.785 C 296.603 64.347,296.151 63.895,295.714 63.781 C 295.276 63.667,294.919 63.283,294.919 62.927 C 294.919 62.094,294.178 61.361,293.334 61.361 C 292.938 61.361,292.621 61.014,292.548 60.499 C 292.474 59.974,292.118 59.592,291.641 59.523 C 291.188 59.459,290.681 58.948,290.443 58.318 C 290.054 57.287,289.931 57.237,288.256 57.426 C 286.633 57.609,286.481 57.555,286.481 56.801 C 286.481 56.293,286.113 55.808,285.523 55.539 C 284.898 55.254,284.564 54.790,284.564 54.205 C 284.564 53.472,284.361 53.308,283.461 53.308 C 282.543 53.308,282.320 53.115,282.128 52.157 C 281.910 51.065,281.803 51.007,279.998 51.007 C 278.319 51.007,278.083 50.906,277.975 50.144 C 277.900 49.619,277.545 49.237,277.067 49.169 C 276.607 49.103,276.105 48.587,275.854 47.922 C 275.467 46.896,275.261 46.788,273.694 46.788 C 272.189 46.788,271.945 46.675,271.839 45.925 C 271.710 45.020,271.648 44.995,269.271 44.919 C 267.941 44.876,267.761 44.750,267.555 43.717 C 267.428 43.083,267.190 42.585,267.027 42.612 C 266.204 42.746,265.833 42.483,265.614 41.611 C 265.383 40.689,265.256 40.652,262.340 40.652 C 259.485 40.652,259.298 40.601,259.183 39.789 C 259.076 39.039,258.800 38.911,257.071 38.811 C 255.228 38.704,255.072 38.619,254.961 37.661 C 254.852 36.717,254.669 36.608,252.890 36.433 C 251.152 36.263,250.945 36.147,251.004 35.379 C 251.065 34.585,250.909 34.516,249.056 34.516 C 247.129 34.516,247.030 34.466,246.788 33.365 L 246.535 32.215 243.498 32.215 C 240.513 32.215,240.460 32.198,240.460 31.256 C 240.460 30.313,240.409 30.297,237.392 30.297 C 234.375 30.297,234.324 30.281,234.324 29.338 C 234.324 28.811,234.151 28.358,233.941 28.332 C 233.730 28.305,233.384 28.241,233.174 28.188 C 232.963 28.135,231.755 28.070,230.489 28.044 C 228.504 28.003,228.188 27.896,228.188 27.270 C 228.188 26.253,227.482 26.079,223.363 26.079 C 219.766 26.079,219.751 26.075,219.751 25.120 L 219.751 24.161 215.532 24.161 C 211.338 24.161,211.314 24.156,211.314 23.243 C 211.314 21.988,210.780 21.860,205.530 21.860 L 200.959 21.860 200.959 20.901 L 200.959 19.942 193.698 19.942 L 186.436 19.942 186.315 18.888 C 186.196 17.857,186.130 17.831,183.407 17.720 L 180.620 17.608 180.391 18.757 M186.524 112.176 C 186.167 113.106,186.630 113.786,187.768 114.004 C 189.306 114.298,189.837 113.966,189.837 112.711 C 189.837 111.429,186.987 110.970,186.524 112.176 M213.231 112.752 C 213.231 113.836,213.334 113.941,214.286 113.832 C 215.123 113.736,215.340 113.513,215.340 112.752 C 215.340 111.991,215.123 111.768,214.286 111.672 C 213.334 111.562,213.231 111.667,213.231 112.752 M178.193 114.094 C 177.850 114.988,178.296 115.728,179.336 115.989 C 180.632 116.314,181.040 115.971,180.939 114.644 C 180.842 113.369,178.640 112.928,178.193 114.094 M236.242 121.214 C 236.242 122.271,236.349 122.378,237.296 122.269 C 238.967 122.077,239.078 120.038,237.418 120.038 C 236.361 120.038,236.242 120.158,236.242 121.214 M163.934 122.249 C 162.813 123.040,163.366 124.488,164.728 124.328 C 165.905 124.191,166.059 124.044,166.059 123.064 C 166.059 121.941,164.966 121.522,163.934 122.249 M242.761 127.298 C 242.761 128.306,242.903 128.476,243.746 128.476 C 245.091 128.476,244.981 126.436,243.624 126.244 C 242.890 126.139,242.761 126.297,242.761 127.298 M244.679 131.544 C 244.679 132.508,244.830 132.694,245.615 132.694 C 246.792 132.694,247.134 132.165,246.601 131.168 C 245.931 129.917,244.679 130.162,244.679 131.544 M155.676 138.879 C 155.661 139.169,155.575 139.794,155.487 140.268 C 155.355 140.976,155.499 141.131,156.282 141.131 C 157.324 141.131,157.721 139.174,156.796 138.602 C 156.495 138.416,156.457 138.501,156.678 138.867 C 156.954 139.326,156.906 139.327,156.354 138.879 C 155.804 138.433,155.700 138.433,155.676 138.879 M115.436 162.746 L 115.436 176.308 116.395 176.125 L 117.354 175.941 117.354 162.563 L 117.354 149.185 116.395 149.185 L 115.436 149.185 115.436 162.746 M194.823 151.294 C 194.823 153.148,194.916 153.404,195.590 153.404 C 196.264 153.404,196.357 153.148,196.357 151.294 C 196.357 149.441,196.264 149.185,195.590 149.185 C 194.916 149.185,194.823 149.441,194.823 151.294 M207.862 151.294 C 207.862 153.148,207.955 153.404,208.629 153.404 C 209.303 153.404,209.396 153.148,209.396 151.294 C 209.396 149.441,209.303 149.185,208.629 149.185 C 207.955 149.185,207.862 149.441,207.862 151.294 M307.115 156.594 C 306.848 158.422,307.240 159.540,308.148 159.540 C 309.063 159.540,309.477 158.699,309.487 156.818 C 309.494 155.457,307.311 155.251,307.115 156.594 M151.103 168.888 C 151.103 169.603,150.843 169.851,149.891 170.041 C 149.224 170.174,148.787 170.391,148.919 170.523 C 149.050 170.655,148.978 171.100,148.757 171.512 C 148.536 171.924,148.256 172.162,148.135 172.040 C 147.766 171.671,146.884 172.625,146.884 173.393 C 146.884 174.010,146.582 174.113,144.775 174.113 C 142.309 174.113,142.033 174.822,143.432 177.565 C 144.159 178.989,144.199 179.825,144.199 193.434 L 144.199 207.799 142.908 208.598 C 141.678 209.358,141.090 209.396,130.635 209.396 L 119.655 209.396 119.655 210.547 C 119.655 211.518,119.506 211.697,118.696 211.697 C 117.794 211.697,117.737 211.817,117.737 213.730 C 117.737 214.848,117.600 215.926,117.432 216.127 C 117.265 216.327,117.195 221.961,117.277 228.647 L 117.427 240.802 132.059 240.919 C 143.097 241.007,146.904 241.157,147.555 241.528 C 148.415 242.019,148.418 242.060,148.423 251.883 C 148.429 263.259,148.458 263.471,150.014 263.471 C 150.689 263.471,151.111 263.280,151.074 262.991 C 150.896 261.619,151.148 259.235,151.451 259.423 C 152.120 259.836,153.020 259.164,153.020 258.252 C 153.020 257.536,153.225 257.335,153.952 257.335 C 154.627 257.335,154.918 257.096,155.007 256.472 C 155.095 255.854,155.429 255.574,156.184 255.487 C 157.190 255.372,157.239 255.270,157.239 253.282 C 157.239 251.686,157.373 251.198,157.814 251.198 C 158.470 251.198,158.597 249.654,158.028 248.605 C 155.888 244.658,154.460 218.193,156.304 216.662 C 156.849 216.210,159.671 216.061,171.583 215.856 C 188.574 215.564,186.385 215.754,186.385 214.573 C 186.385 213.667,186.500 213.615,188.495 213.615 C 190.495 213.615,190.604 213.564,190.604 212.646 C 190.604 211.877,190.841 211.631,191.755 211.448 C 193.276 211.143,193.465 209.396,191.976 209.396 C 191.464 209.396,190.552 208.902,189.948 208.297 C 189.343 207.693,188.476 207.080,188.020 206.935 C 187.564 206.791,187.085 206.336,186.954 205.925 C 186.824 205.514,186.407 205.177,186.029 205.177 C 185.650 205.177,184.689 204.660,183.893 204.027 C 183.096 203.394,182.206 202.876,181.914 202.876 C 181.622 202.876,181.193 202.458,180.960 201.947 C 180.727 201.436,180.133 200.916,179.639 200.793 C 179.146 200.669,178.313 200.138,177.787 199.613 C 177.262 199.087,176.578 198.658,176.268 198.658 C 175.957 198.658,175.388 198.269,175.004 197.793 C 174.619 197.318,173.830 196.717,173.250 196.459 C 172.670 196.201,172.196 195.727,172.196 195.406 C 172.196 195.085,171.944 194.823,171.636 194.823 C 171.328 194.823,170.595 194.389,170.006 193.859 C 169.417 193.329,167.915 192.033,166.667 190.979 C 165.419 189.925,164.109 188.590,163.757 188.012 C 163.404 187.434,162.829 186.724,162.478 186.434 C 162.128 186.145,161.841 185.695,161.841 185.436 C 161.841 185.176,161.425 184.514,160.916 183.966 C 160.408 183.417,159.873 182.425,159.727 181.761 C 159.581 181.098,159.144 180.237,158.755 179.848 C 158.366 179.459,157.926 178.486,157.775 177.685 C 157.625 176.884,157.098 175.468,156.603 174.539 C 156.109 173.609,155.705 172.292,155.705 171.611 C 155.705 168.377,155.425 167.977,153.164 167.977 C 151.250 167.977,151.103 168.042,151.103 168.888 M115.436 211.505 C 115.436 213.500,115.489 213.615,116.395 213.615 C 117.301 213.615,117.354 213.500,117.354 211.505 C 117.354 209.511,117.301 209.396,116.395 209.396 C 115.489 209.396,115.436 209.511,115.436 211.505 M248.897 210.822 C 248.897 211.901,249.031 212.081,249.834 212.081 C 250.988 212.081,251.183 211.791,250.928 210.456 C 250.611 208.795,248.897 209.104,248.897 210.822 M195.973 211.293 C 194.269 211.724,194.405 213.615,196.139 213.615 C 197.397 213.615,197.507 213.524,197.507 212.487 C 197.507 211.159,197.262 210.967,195.973 211.293 M203.260 218.600 C 203.260 219.623,203.388 219.751,204.410 219.751 C 205.433 219.751,205.561 219.623,205.561 218.600 C 205.561 217.578,205.433 217.450,204.410 217.450 C 203.388 217.450,203.260 217.578,203.260 218.600 M251.326 224.551 C 251.326 224.864,251.671 225.120,252.093 225.120 C 252.515 225.120,252.788 225.071,252.701 225.011 C 252.613 224.952,252.267 224.696,251.934 224.442 C 251.445 224.072,251.326 224.093,251.326 224.551 M251.277 234.202 C 251.372 241.193,251.481 242.531,251.965 242.663 C 252.477 242.802,252.477 242.774,251.965 242.413 C 251.543 242.114,251.523 242.004,251.892 242.000 C 252.168 241.997,252.299 241.840,252.182 241.651 C 252.065 241.462,252.228 241.209,252.543 241.088 C 253.028 240.902,253.103 239.732,253.033 233.473 L 252.949 226.079 252.733 233.557 L 252.516 241.035 252.432 233.694 C 252.362 227.478,252.258 226.318,251.756 226.125 C 251.231 225.923,251.177 226.840,251.277 234.202 M209.456 230.476 C 209.659 233.119,211.697 233.300,211.697 230.675 C 211.697 228.979,211.672 228.945,210.524 229.032 C 209.432 229.115,209.359 229.214,209.456 230.476 M209.971 241.360 C 209.150 242.307,209.377 242.980,210.548 243.069 C 211.425 243.136,211.696 242.997,211.691 242.480 C 211.680 241.178,210.688 240.533,209.971 241.360 M196.740 246.018 C 196.740 246.668,196.986 246.961,197.603 247.049 C 198.221 247.137,198.500 247.471,198.587 248.226 C 198.690 249.115,198.889 249.281,199.859 249.281 C 201.363 249.281,201.385 247.259,199.883 247.046 C 199.398 246.977,198.855 246.541,198.679 246.076 C 198.220 244.871,196.740 244.827,196.740 246.018 M146.672 269.003 C 146.319 270.888,146.746 271.908,147.889 271.908 C 149.263 271.908,149.145 268.035,147.763 267.827 C 147.067 267.722,146.873 267.931,146.672 269.003 M238.159 268.840 C 238.159 270.003,238.596 270.240,239.854 269.758 C 241.027 269.307,240.602 267.689,239.310 267.689 C 238.287 267.689,238.159 267.817,238.159 268.840 M183.263 274.096 C 181.760 274.327,181.893 276.126,183.413 276.126 C 184.329 276.127,184.468 275.976,184.468 274.976 C 184.468 274.343,184.425 273.851,184.372 273.883 C 184.319 273.915,183.820 274.011,183.263 274.096 M191.467 276.010 C 190.457 276.209,190.240 277.929,191.180 278.289 C 192.444 278.774,193.728 278.080,193.600 276.979 C 193.478 275.918,193.010 275.706,191.467 276.010 M86.493 284.928 C 86.356 285.149,86.344 285.491,86.465 285.688 C 86.875 286.352,86.029 286.460,80.097 286.501 L 74.179 286.543 74.097 287.536 C 73.992 288.804,74.140 288.721,71.789 288.829 C 70.444 288.890,69.827 289.069,69.940 289.366 C 70.275 290.238,69.562 290.655,67.585 290.745 C 65.663 290.833,65.580 290.882,65.580 291.919 C 65.580 292.817,65.417 293.001,64.621 293.001 C 63.854 293.001,63.663 293.193,63.663 293.960 C 63.663 294.853,63.010 295.179,61.649 294.964 C 61.491 294.939,61.361 295.446,61.361 296.092 C 61.361 296.737,61.204 297.168,61.013 297.049 C 60.352 296.641,59.444 297.303,59.444 298.194 C 59.444 298.882,59.203 299.114,58.389 299.208 C 57.809 299.274,57.313 299.545,57.287 299.808 C 57.260 300.072,57.217 300.959,57.191 301.780 C 57.151 303.033,56.989 303.311,56.184 303.513 C 55.322 303.730,55.225 303.946,55.225 305.664 C 55.225 307.283,55.114 307.574,54.499 307.574 C 53.542 307.574,53.308 308.293,53.308 311.224 C 53.308 313.596,53.280 313.663,52.253 313.781 L 51.198 313.902 51.095 322.052 L 50.991 330.201 52.130 330.201 C 53.232 330.201,53.271 330.264,53.384 332.215 C 53.485 333.969,53.611 334.244,54.362 334.351 C 55.135 334.460,55.225 334.689,55.225 336.530 C 55.225 338.490,55.276 338.593,56.280 338.709 C 57.099 338.803,57.324 339.023,57.289 339.693 C 57.246 340.489,57.890 340.801,59.156 340.602 C 59.427 340.559,59.557 341.756,59.348 342.374 C 59.295 342.530,59.770 342.747,60.402 342.857 C 61.227 343.000,61.552 343.272,61.553 343.820 C 61.553 344.342,61.856 344.625,62.512 344.717 C 63.625 344.874,64.033 345.381,63.842 346.372 C 63.741 346.895,63.940 347.076,64.617 347.076 C 65.268 347.076,65.561 347.321,65.649 347.939 C 65.736 348.551,66.071 348.836,66.803 348.921 C 67.600 349.013,67.862 349.274,67.954 350.071 C 68.062 351.010,68.237 351.113,69.895 351.219 C 70.896 351.284,71.738 351.499,71.764 351.699 C 71.791 351.898,71.834 352.277,71.860 352.541 C 71.893 352.872,72.889 353.055,75.072 353.132 L 78.236 353.243 78.236 354.378 L 78.236 355.513 88.591 355.513 L 98.945 355.513 98.945 354.382 C 98.945 353.289,99.011 353.248,100.959 353.136 C 102.698 353.036,102.989 352.905,103.092 352.176 C 103.196 351.449,103.487 351.317,105.202 351.218 C 107.053 351.111,107.199 351.030,107.312 350.048 C 107.422 349.096,107.918 348.775,109.012 348.948 C 109.171 348.973,109.300 348.562,109.300 348.035 C 109.300 347.144,109.930 346.825,111.295 347.024 C 111.443 347.046,111.529 346.601,111.487 346.036 C 111.426 345.225,111.612 344.960,112.368 344.780 C 112.962 344.638,113.372 344.238,113.446 343.728 C 113.520 343.222,113.889 342.858,114.403 342.785 C 114.940 342.708,115.309 342.321,115.434 341.705 C 115.584 340.960,115.859 340.748,116.657 340.763 C 117.222 340.774,117.676 340.689,117.666 340.574 C 117.434 338.060,117.799 336.471,118.600 336.499 C 119.375 336.526,119.475 336.325,119.579 334.516 C 119.695 332.502,120.016 332.188,121.678 332.460 C 121.842 332.487,121.962 327.330,121.945 321.000 L 121.914 309.492 120.804 309.492 C 119.736 309.492,119.691 309.417,119.579 307.478 C 119.478 305.724,119.352 305.449,118.600 305.342 C 117.841 305.235,117.737 304.997,117.737 303.360 C 117.737 301.604,117.672 301.485,116.587 301.246 C 115.800 301.074,115.436 300.763,115.436 300.264 C 115.436 299.806,115.080 299.446,114.477 299.295 C 113.907 299.151,113.519 298.779,113.519 298.375 C 113.519 297.562,112.651 296.767,111.929 296.918 C 111.643 296.979,111.386 296.769,111.358 296.453 C 111.329 296.136,111.286 295.662,111.262 295.398 C 111.238 295.134,110.805 294.919,110.300 294.919 C 109.642 294.919,109.315 294.648,109.143 293.960 C 109.000 293.391,108.627 293.001,108.226 293.001 C 107.828 293.001,107.373 292.529,107.116 291.850 C 106.721 290.802,106.525 290.700,104.923 290.700 C 103.302 290.700,103.164 290.624,103.164 289.741 C 103.164 288.798,103.113 288.782,100.096 288.782 C 97.693 288.782,97.028 288.664,97.028 288.234 C 97.028 287.007,95.878 286.481,93.192 286.481 C 90.756 286.481,90.552 286.417,90.439 285.618 C 90.304 284.671,87.009 284.094,86.493 284.928 " stroke="none" fill="#9b9b9b" fill-rule="evenodd"></path><path id="path1" d="M190.988 112.714 C 190.988 113.920,189.353 114.858,188.005 114.425 C 187.445 114.246,187.432 114.276,187.919 114.624 C 188.500 115.039,189.152 114.954,191.083 114.213 C 192.275 113.757,192.670 111.601,191.563 111.601 C 191.184 111.601,190.988 111.980,190.988 112.714 M211.167 112.656 C 211.306 113.236,211.484 113.827,211.563 113.969 C 211.850 114.488,213.986 114.713,214.655 114.295 C 215.258 113.917,215.236 113.894,214.477 114.101 C 212.992 114.508,212.220 114.026,212.308 112.749 C 212.371 111.845,212.231 111.601,211.652 111.601 C 211.043 111.601,210.959 111.784,211.167 112.656 M181.400 114.820 C 181.400 116.309,180.727 116.749,179.287 116.202 C 178.762 116.002,178.332 115.925,178.332 116.030 C 178.332 116.520,180.343 116.947,180.998 116.596 C 181.694 116.224,182.316 113.519,181.706 113.519 C 181.538 113.519,181.400 114.104,181.400 114.820 M265.388 114.782 L 264.430 115.267 264.238 155.716 C 264.131 178.299,263.895 196.419,263.704 196.740 C 263.484 197.111,263.620 197.073,264.088 196.631 C 264.788 195.970,264.820 194.539,265.005 155.612 L 265.197 115.279 266.155 115.012 C 267.698 114.583,304.319 114.617,305.454 115.049 L 306.452 115.428 306.408 136.955 C 306.373 153.505,306.472 158.582,306.833 158.915 C 307.187 159.241,307.236 159.229,307.031 158.866 C 306.882 158.601,306.775 148.644,306.795 136.738 C 306.829 115.597,306.813 115.083,306.077 114.689 C 304.905 114.062,266.639 114.149,265.388 114.782 M174.572 116.143 C 173.894 116.580,174.142 117.479,175.041 117.845 C 175.932 118.207,176.535 117.692,176.350 116.728 C 176.198 115.937,175.332 115.653,174.572 116.143 M227.935 116.417 C 227.544 117.436,228.112 118.196,229.049 117.908 C 230.191 117.557,230.212 117.528,229.949 116.697 C 229.676 115.839,228.233 115.639,227.935 116.417 M170.091 118.440 C 169.646 119.598,169.909 120.038,171.045 120.038 C 172.058 120.038,172.196 119.906,172.196 118.928 C 172.196 117.730,170.514 117.340,170.091 118.440 M232.023 118.914 C 232.023 119.903,232.159 120.038,233.151 120.038 C 234.765 120.038,234.693 118.074,233.073 117.902 C 232.142 117.802,232.023 117.917,232.023 118.914 M235.605 121.186 C 235.655 122.270,235.886 122.629,236.817 123.066 C 237.450 123.363,238.105 123.839,238.274 124.123 C 238.443 124.408,238.840 124.640,239.157 124.640 C 239.474 124.640,239.909 125.144,240.123 125.760 C 240.338 126.376,240.761 126.975,241.062 127.090 C 241.364 127.206,241.611 127.538,241.611 127.829 C 241.611 128.119,241.926 128.642,242.312 128.991 C 243.079 129.686,244.679 129.855,244.679 129.243 C 244.679 129.032,244.161 128.859,243.528 128.859 C 242.711 128.859,242.360 128.665,242.318 128.188 C 242.139 126.184,242.197 125.487,242.526 125.691 C 242.737 125.821,242.783 125.634,242.635 125.247 C 242.493 124.879,242.378 124.506,242.378 124.417 C 242.378 124.329,241.946 124.257,241.419 124.257 C 240.659 124.257,240.460 124.063,240.460 123.324 C 240.460 122.283,239.036 121.541,238.549 122.329 C 237.907 123.368,236.064 122.604,235.797 121.189 L 235.544 119.847 235.605 121.186 M166.500 122.991 C 166.467 123.709,166.164 124.381,165.772 124.610 C 165.136 124.980,165.136 125.001,165.784 125.012 C 166.619 125.027,166.937 124.293,166.721 122.851 C 166.561 121.784,166.557 121.786,166.500 122.991 M244.073 131.335 C 243.537 133.474,246.209 135.966,246.880 133.953 C 246.974 133.672,246.620 133.585,245.864 133.704 C 244.582 133.906,243.969 132.793,244.478 131.188 C 244.617 130.751,244.636 130.393,244.520 130.393 C 244.405 130.393,244.203 130.817,244.073 131.335 M157.821 132.934 C 156.934 133.821,157.224 135.158,158.338 135.315 C 159.591 135.493,160.048 134.901,159.740 133.499 C 159.451 132.185,158.770 131.984,157.821 132.934 M157.693 140.400 C 157.755 142.150,157.429 142.665,156.257 142.665 C 155.514 142.665,155.321 142.863,155.321 143.624 C 155.321 144.390,155.513 144.583,156.275 144.583 C 157.775 144.583,158.981 141.118,158.010 139.597 C 157.741 139.175,157.657 139.389,157.693 140.400 M246.002 140.111 C 245.863 140.667,246.101 141.630,246.631 142.646 C 247.680 144.659,248.299 160.905,247.369 162.026 C 246.775 162.742,211.458 162.917,210.138 162.211 C 209.173 161.694,209.113 157.755,210.023 154.626 C 210.497 152.995,210.590 151.672,210.407 149.197 C 210.066 144.612,209.898 144.133,208.675 144.275 C 207.184 144.448,207.041 145.964,208.517 145.942 L 209.588 145.925 209.696 150.240 L 209.805 154.554 208.642 154.554 C 207.291 154.554,207.306 154.519,208.051 155.948 C 208.389 156.597,208.625 158.083,208.627 159.574 C 208.630 163.196,207.415 162.991,228.914 162.991 C 250.787 162.991,248.525 163.704,248.489 156.825 C 248.443 147.776,247.970 143.144,246.987 142.098 C 246.350 141.419,246.184 140.913,246.365 140.194 C 246.500 139.655,246.525 139.214,246.419 139.214 C 246.314 139.214,246.126 139.617,246.002 140.111 M205.616 140.706 C 204.786 141.232,205.447 142.665,206.520 142.665 C 207.446 142.665,208.142 141.510,207.672 140.751 C 207.381 140.280,206.324 140.257,205.616 140.706 M194.823 146.103 C 193.917 146.683,193.759 155.003,194.628 156.329 C 194.979 156.866,195.526 158.196,195.843 159.285 C 196.740 162.370,198.204 164.315,202.188 167.713 C 204.468 169.658,206.425 171.045,206.889 171.045 C 207.140 171.045,207.750 171.477,208.245 172.004 C 208.741 172.531,209.362 172.963,209.625 172.963 C 209.889 172.963,210.592 173.368,211.188 173.863 C 211.784 174.358,212.713 175.005,213.251 175.301 C 215.562 176.572,219.615 179.163,222.052 180.927 C 223.001 181.614,224.194 182.476,224.703 182.843 C 225.212 183.209,226.198 183.941,226.895 184.468 C 227.591 184.995,228.987 186.028,229.996 186.764 C 238.152 192.708,247.022 202.289,246.148 204.209 C 245.307 206.053,247.679 208.373,248.706 206.711 C 248.843 206.488,248.463 206.328,247.795 206.328 C 246.469 206.328,245.920 205.291,246.587 204.045 C 247.419 202.489,241.225 195.134,234.324 189.484 C 232.742 188.189,231.040 186.785,230.541 186.364 C 230.043 185.943,229.266 185.407,228.815 185.173 C 228.365 184.939,227.712 184.469,227.364 184.128 C 227.016 183.788,225.845 182.905,224.761 182.167 C 223.677 181.429,222.297 180.436,221.695 179.962 C 221.092 179.487,220.429 179.099,220.222 179.099 C 220.014 179.099,219.619 178.826,219.342 178.494 C 219.066 178.161,218.010 177.468,216.994 176.953 C 215.979 176.439,215.149 175.860,215.149 175.667 C 215.149 175.473,214.760 175.198,214.286 175.054 C 213.811 174.910,213.075 174.475,212.651 174.087 C 212.226 173.700,211.273 173.130,210.533 172.821 C 209.794 172.512,208.863 171.900,208.466 171.460 C 208.068 171.021,207.535 170.662,207.280 170.662 C 206.840 170.662,205.093 169.441,202.777 167.515 C 198.897 164.287,196.604 161.030,196.131 158.071 C 195.970 157.068,195.596 156.297,195.155 156.061 C 193.400 155.121,194.360 146.884,196.224 146.884 C 196.939 146.884,196.692 145.962,195.941 145.830 C 195.642 145.777,195.139 145.900,194.823 146.103 M115.129 148.495 C 114.789 148.835,114.669 152.507,114.669 162.638 C 114.669 177.533,114.715 177.853,116.692 176.863 C 117.497 176.459,117.481 176.440,116.395 176.520 L 115.244 176.606 115.144 162.704 L 115.043 148.802 116.103 148.796 C 116.928 148.791,117.035 148.707,116.587 148.418 C 115.839 147.935,115.681 147.943,115.129 148.495 M155.573 168.360 C 155.793 168.677,156.362 170.230,156.839 171.812 C 157.315 173.394,158.291 176.103,159.006 177.831 C 159.721 179.559,160.307 181.049,160.307 181.140 C 160.307 182.666,166.192 189.611,170.179 192.790 C 170.761 193.254,172.046 194.289,173.036 195.091 C 174.750 196.480,175.811 197.261,178.918 199.425 C 179.676 199.952,180.992 200.944,181.843 201.630 C 182.694 202.315,183.626 202.876,183.915 202.876 C 184.204 202.876,184.626 203.221,184.851 203.643 C 185.077 204.065,185.476 204.410,185.738 204.410 C 186.128 204.410,189.024 206.350,190.832 207.822 C 191.063 208.010,191.796 208.445,192.462 208.790 C 193.427 209.289,193.678 209.666,193.699 210.652 C 193.722 211.691,193.779 211.766,194.056 211.122 C 194.630 209.785,194.477 209.431,192.854 208.346 C 191.982 207.763,190.628 206.855,189.846 206.328 C 189.064 205.801,187.836 204.985,187.117 204.515 C 185.415 203.404,184.792 202.972,182.417 201.263 C 181.330 200.481,179.923 199.478,179.291 199.035 C 177.449 197.745,174.088 195.250,172.951 194.329 C 172.374 193.862,171.352 193.049,170.679 192.522 C 164.106 187.369,160.815 182.302,157.996 172.997 C 157.332 170.804,156.564 169.074,156.039 168.587 C 155.563 168.146,155.354 168.044,155.573 168.360 M141.807 192.234 L 141.707 208.054 131.544 208.245 C 124.014 208.388,121.182 208.569,120.614 208.946 L 119.847 209.454 120.614 209.138 C 121.035 208.964,126.004 208.736,131.654 208.630 C 140.219 208.469,141.989 208.342,142.297 207.862 C 142.782 207.106,142.749 176.414,142.262 176.414 C 142.051 176.414,141.866 182.853,141.807 192.234 M114.902 209.236 C 114.518 210.236,114.672 216.747,115.123 218.600 C 115.354 219.549,115.649 224.981,115.777 230.670 L 116.012 241.014 116.970 241.499 C 117.688 241.861,121.395 241.986,131.735 241.994 C 139.329 242.001,145.770 242.151,146.049 242.328 C 146.585 242.667,146.483 266.279,145.934 269.223 C 145.755 270.184,145.860 270.784,146.305 271.333 C 146.916 272.087,146.920 272.086,146.522 271.262 C 145.594 269.342,146.497 265.992,147.872 266.255 C 148.726 266.418,148.802 266.312,148.802 264.952 C 148.802 264.137,148.657 263.471,148.480 263.471 C 147.514 263.471,147.267 261.131,147.267 251.961 C 147.267 242.906,147.229 242.384,146.526 242.008 C 146.054 241.755,140.746 241.611,131.927 241.611 C 123.109 241.611,117.801 241.466,117.329 241.214 C 116.624 240.837,116.587 240.312,116.587 230.867 C 116.587 222.358,116.491 220.679,115.929 219.279 C 115.450 218.088,115.267 216.491,115.258 213.423 L 115.244 209.204 116.395 209.288 C 117.252 209.351,117.399 209.279,116.970 209.006 C 116.100 208.453,115.162 208.557,114.902 209.236 M248.112 210.786 C 247.551 212.261,248.733 214.575,250.044 214.569 C 250.643 214.566,251.046 214.316,251.126 213.898 C 251.226 213.380,250.989 213.231,250.064 213.231 C 248.690 213.231,248.014 212.073,248.553 210.642 C 248.732 210.168,248.792 209.779,248.687 209.779 C 248.581 209.779,248.323 210.232,248.112 210.786 M197.377 210.930 C 197.622 211.246,197.899 212.023,197.991 212.656 L 198.159 213.806 198.217 212.607 C 198.252 211.867,198.017 211.206,197.603 210.881 C 197.019 210.423,196.990 210.429,197.377 210.930 M201.918 215.149 C 201.267 215.428,201.333 215.482,202.352 215.505 C 203.200 215.524,203.610 215.749,203.746 216.267 C 203.852 216.672,204.345 217.059,204.845 217.130 C 205.540 217.228,205.812 217.572,206.005 218.600 L 206.258 219.942 206.197 218.609 C 206.152 217.632,205.898 217.157,205.247 216.834 C 204.757 216.592,204.100 216.027,203.787 215.579 C 203.163 214.689,203.048 214.663,201.918 215.149 M180.825 216.299 C 180.403 216.480,175.085 216.641,169.006 216.656 C 162.175 216.672,157.672 216.834,157.214 217.080 C 156.371 217.530,156.129 232.045,156.871 237.584 C 157.069 239.060,157.391 241.563,157.587 243.145 C 157.966 246.210,158.472 247.899,159.133 248.308 C 159.357 248.446,159.551 249.110,159.564 249.783 C 159.588 250.970,159.600 250.979,159.963 250.068 C 160.259 249.327,160.175 248.907,159.563 248.079 C 158.807 247.058,158.631 246.092,157.616 237.392 C 156.830 230.665,157.147 217.564,158.102 217.308 C 158.576 217.181,163.797 217.068,169.703 217.058 C 178.282 217.043,180.634 216.929,181.400 216.491 C 182.442 215.895,182.061 215.768,180.825 216.299 M208.054 221.306 C 207.434 221.555,207.535 221.620,208.581 221.641 C 209.831 221.667,209.867 221.711,209.636 222.915 C 209.466 223.801,209.506 223.995,209.774 223.586 C 210.722 222.140,209.617 220.677,208.054 221.306 M250.290 225.599 C 249.935 226.921,250.058 240.549,250.431 241.419 C 250.629 241.879,250.772 238.691,250.788 233.461 C 250.815 224.884,250.751 223.879,250.290 225.599 M209.652 226.526 C 209.016 227.161,209.461 227.662,210.522 227.506 C 211.570 227.353,211.664 227.443,211.889 228.819 C 212.300 231.322,212.374 231.496,212.420 230.067 C 212.511 227.238,210.944 225.234,209.652 226.526 M211.913 241.898 C 212.313 243.472,211.754 244.391,210.509 244.208 C 209.736 244.095,209.396 244.208,209.396 244.578 C 209.396 244.948,209.775 245.074,210.635 244.991 C 212.149 244.844,212.882 243.352,212.146 241.918 L 211.693 241.035 211.913 241.898 M196.142 246.285 C 195.956 246.872,196.092 247.304,196.596 247.723 C 196.992 248.053,197.622 248.797,197.996 249.377 C 198.768 250.576,198.997 250.637,199.986 249.914 C 200.628 249.444,200.586 249.412,199.535 249.567 C 198.555 249.710,198.339 249.590,198.137 248.788 C 198.006 248.264,197.532 247.743,197.080 247.624 C 196.421 247.452,196.310 247.219,196.508 246.428 C 196.809 245.231,196.513 245.115,196.142 246.285 M248.869 251.994 C 248.061 252.802,247.997 253.294,248.547 254.458 C 248.854 255.109,248.880 255.073,248.715 254.215 C 248.481 252.995,249.191 252.297,250.356 252.602 C 250.947 252.756,251.198 252.650,251.198 252.247 C 251.198 251.323,249.702 251.161,248.869 251.994 M159.540 255.754 C 159.540 256.387,159.724 257.020,159.949 257.159 C 160.561 257.537,160.899 257.006,160.377 256.484 C 159.697 255.805,159.827 255.417,160.735 255.417 C 161.400 255.417,161.513 255.595,161.358 256.405 C 161.254 256.948,161.315 257.247,161.494 257.068 C 162.430 256.132,162.041 254.843,160.786 254.722 C 159.630 254.610,159.540 254.685,159.540 255.754 M162.585 259.083 C 163.444 259.246,163.750 259.543,163.867 260.329 C 164.007 261.261,164.018 261.249,163.986 260.211 C 163.954 259.197,163.802 259.049,162.704 258.965 C 161.517 258.873,161.511 258.879,162.585 259.083 M244.434 261.745 C 244.074 262.682,244.575 263.430,245.521 263.371 C 246.513 263.309,246.965 262.833,246.974 261.841 C 246.982 260.975,244.761 260.892,244.434 261.745 M240.460 266.114 C 240.460 266.302,239.987 266.575,239.408 266.720 C 237.851 267.110,237.386 267.646,237.443 268.983 L 237.493 270.182 237.730 268.840 L 237.967 267.498 240.226 267.498 C 242.273 267.498,242.498 267.417,242.621 266.635 C 242.736 265.902,242.583 265.772,241.608 265.772 C 240.977 265.772,240.460 265.926,240.460 266.114 M170.853 267.326 L 169.703 267.599 170.949 267.644 C 172.084 267.685,172.198 267.801,172.226 268.936 L 172.256 270.182 172.654 269.090 C 173.180 267.645,172.465 266.944,170.853 267.326 M234.239 270.777 C 234.083 271.844,234.154 271.937,235.056 271.831 C 236.690 271.641,236.501 269.635,234.847 269.613 C 234.607 269.610,234.334 270.133,234.239 270.777 M230.105 272.892 C 230.105 273.734,230.254 273.859,231.130 273.755 C 232.666 273.573,232.721 271.908,231.192 271.908 C 230.281 271.908,230.105 272.067,230.105 272.892 M184.531 273.568 C 184.882 273.835,185.244 274.563,185.336 275.186 L 185.503 276.318 185.561 275.149 C 185.618 273.978,185.052 273.048,184.295 273.071 C 184.074 273.077,184.180 273.301,184.531 273.568 M191.755 275.391 C 191.296 275.711,191.345 275.747,191.992 275.567 C 193.487 275.149,194.823 275.967,194.823 277.300 C 194.823 278.779,195.726 278.649,195.904 277.143 C 196.081 275.640,193.161 274.406,191.755 275.391 M214.610 275.860 C 214.196 276.163,213.978 276.720,214.058 277.269 C 214.241 278.528,214.963 278.650,215.063 277.439 C 215.185 275.965,215.504 275.655,216.629 275.915 C 217.388 276.091,217.497 276.052,217.066 275.761 C 216.280 275.229,215.427 275.263,214.610 275.860 " stroke="none" fill="#747474" fill-rule="evenodd"></path><path id="path2" d="M287.157 57.414 C 287.634 57.506,288.324 57.502,288.691 57.406 C 289.058 57.310,288.667 57.235,287.824 57.240 C 286.980 57.244,286.680 57.322,287.157 57.414 M148.891 68.648 C 148.891 69.386,148.969 69.688,149.066 69.319 C 149.162 68.950,149.162 68.346,149.066 67.977 C 148.969 67.608,148.891 67.910,148.891 68.648 M255.130 96.069 C 255.135 96.913,255.213 97.213,255.305 96.736 C 255.397 96.259,255.393 95.568,255.297 95.202 C 255.201 94.835,255.126 95.225,255.130 96.069 M189.837 112.711 C 189.837 113.925,189.245 114.328,187.861 114.057 C 186.963 113.881,186.963 113.881,187.813 114.259 C 189.261 114.901,190.988 114.060,190.988 112.714 C 190.988 111.980,190.791 111.601,190.412 111.601 C 190.033 111.601,189.837 111.980,189.837 112.711 M212.433 111.697 C 211.908 113.313,213.278 115.133,214.272 114.140 C 214.402 114.009,214.222 113.902,213.870 113.902 C 213.416 113.902,213.231 113.570,213.231 112.752 C 213.231 111.877,212.632 111.085,212.433 111.697 M181.035 113.710 C 180.978 113.921,180.961 114.468,180.997 114.925 C 181.033 115.382,180.750 115.937,180.368 116.160 C 179.986 116.382,179.847 116.566,180.058 116.569 C 180.998 116.583,181.450 115.877,181.298 114.629 C 181.211 113.913,181.092 113.500,181.035 113.710 M264.507 114.382 C 263.912 114.824,263.856 117.980,263.763 155.764 C 263.708 178.261,263.789 196.468,263.944 196.224 C 264.099 195.981,264.229 177.725,264.232 155.656 C 264.237 118.811,264.290 115.487,264.872 115.004 C 265.697 114.319,304.808 114.010,306.058 114.679 C 306.819 115.086,306.830 115.420,306.795 136.780 C 306.775 148.709,306.873 158.580,307.012 158.717 C 307.152 158.853,307.229 158.619,307.184 158.198 C 306.992 156.395,307.195 155.657,307.862 155.725 C 308.231 155.762,308.749 155.773,309.012 155.749 C 309.693 155.686,309.617 153.218,308.917 152.637 C 308.420 152.224,308.341 149.663,308.341 133.906 L 308.341 115.652 307.323 114.777 L 306.304 113.902 285.728 113.902 C 269.866 113.902,265.004 114.012,264.507 114.382 M235.954 121.285 C 236.045 122.467,238.543 123.572,238.543 122.430 C 238.543 122.242,238.037 122.163,237.419 122.254 C 236.417 122.401,236.273 122.290,236.077 121.228 L 235.858 120.038 235.954 121.285 M166.117 122.986 C 166.066 124.070,165.919 124.222,164.813 124.329 C 163.749 124.431,163.690 124.485,164.412 124.696 C 165.666 125.063,166.541 124.246,166.342 122.896 L 166.174 121.764 166.117 122.986 M242.209 126.491 C 242.322 128.857,242.325 128.861,243.624 128.802 C 244.784 128.748,244.798 128.733,243.816 128.584 C 242.905 128.446,242.761 128.248,242.761 127.130 C 242.761 126.419,242.626 125.753,242.460 125.650 C 242.295 125.548,242.182 125.926,242.209 126.491 M244.353 131.927 C 244.268 133.700,246.572 134.679,246.900 133.008 C 246.984 132.580,246.730 132.480,245.877 132.605 C 244.927 132.745,244.714 132.625,244.571 131.870 C 244.401 130.975,244.399 130.976,244.353 131.927 M156.305 138.870 C 156.426 139.066,156.685 139.127,156.882 139.006 C 157.078 138.884,157.239 139.313,157.239 139.958 C 157.239 140.954,157.094 141.131,156.280 141.131 C 155.577 141.131,155.321 141.336,155.321 141.898 C 155.321 143.012,157.156 142.957,157.572 141.831 C 158.021 140.618,157.537 138.727,156.749 138.612 C 156.384 138.558,156.184 138.674,156.305 138.870 M246.243 140.531 C 246.226 140.940,246.582 141.667,247.034 142.148 C 248.504 143.713,249.175 161.124,247.813 162.357 C 246.940 163.147,211.348 163.340,209.644 162.564 C 208.785 162.172,208.695 161.884,208.570 159.129 C 208.495 157.476,208.251 155.941,208.029 155.719 C 207.746 155.436,207.672 156.379,207.780 158.865 C 207.896 161.526,208.088 162.536,208.547 162.895 C 209.520 163.657,247.862 163.586,248.496 162.821 C 248.835 162.413,248.923 159.671,248.831 152.429 L 248.706 142.592 247.701 141.766 C 247.149 141.311,246.601 140.681,246.485 140.364 C 246.330 139.942,246.265 139.986,246.243 140.531 M207.750 145.973 C 207.601 146.122,207.478 148.114,207.478 150.399 L 207.478 154.554 208.642 154.554 L 209.805 154.554 209.696 150.240 C 209.588 145.922,209.028 144.695,207.750 145.973 M195.042 147.487 C 194.079 148.449,194.172 155.535,195.155 156.061 C 195.596 156.297,195.970 157.068,196.131 158.071 C 196.604 161.030,198.897 164.287,202.777 167.515 C 205.093 169.441,206.840 170.662,207.280 170.662 C 207.535 170.662,208.068 171.021,208.466 171.460 C 208.863 171.900,209.794 172.512,210.533 172.821 C 211.273 173.130,212.226 173.700,212.651 174.087 C 213.075 174.475,213.811 174.910,214.286 175.054 C 214.760 175.198,215.149 175.473,215.149 175.667 C 215.149 175.860,215.979 176.439,216.994 176.953 C 218.010 177.468,219.066 178.161,219.342 178.494 C 219.619 178.826,220.014 179.099,220.222 179.099 C 220.429 179.099,221.092 179.487,221.695 179.962 C 222.297 180.436,223.677 181.429,224.761 182.167 C 225.845 182.905,227.016 183.788,227.364 184.128 C 227.712 184.469,228.365 184.939,228.815 185.173 C 229.266 185.407,230.043 185.943,230.541 186.364 C 231.040 186.785,232.742 188.189,234.324 189.483 C 238.697 193.060,244.566 199.279,246.467 202.348 C 246.830 202.936,246.857 202.812,246.613 201.675 C 246.243 199.950,245.930 199.425,245.273 199.425 C 244.992 199.425,244.657 199.005,244.528 198.492 C 244.399 197.978,243.949 197.449,243.527 197.315 C 243.106 197.181,242.761 196.842,242.761 196.562 C 242.761 196.281,242.051 195.387,241.182 194.574 C 240.313 193.762,239.153 192.622,238.604 192.042 C 238.054 191.462,237.412 190.988,237.177 190.988 C 236.941 190.988,236.552 190.556,236.311 190.029 C 236.053 189.461,235.555 189.070,235.090 189.070 C 234.606 189.070,234.165 188.703,233.941 188.111 C 233.740 187.584,233.317 187.152,233.000 187.152 C 232.683 187.152,232.142 186.721,231.796 186.194 C 231.450 185.666,230.935 185.235,230.650 185.235 C 230.365 185.235,229.565 184.740,228.872 184.136 C 228.180 183.532,227.233 182.919,226.769 182.774 C 226.306 182.630,225.822 182.184,225.695 181.783 C 225.568 181.383,225.085 180.937,224.621 180.792 C 224.157 180.647,223.304 180.132,222.725 179.648 C 222.146 179.164,221.321 178.657,220.891 178.520 C 220.461 178.384,219.692 177.854,219.181 177.343 C 218.670 176.832,218.028 176.411,217.755 176.408 C 217.481 176.404,216.869 175.991,216.395 175.490 C 215.920 174.989,215.065 174.462,214.494 174.319 C 213.924 174.176,213.233 173.740,212.960 173.349 C 212.687 172.959,211.969 172.531,211.366 172.399 C 210.762 172.266,209.901 171.735,209.451 171.218 C 209.002 170.701,208.373 170.278,208.054 170.278 C 207.735 170.278,207.098 169.847,206.640 169.319 C 206.181 168.792,205.642 168.360,205.442 168.360 C 205.242 168.360,204.367 167.757,203.498 167.019 C 200.143 164.171,198.844 162.690,198.324 161.117 C 198.087 160.403,197.613 159.613,197.268 159.361 C 196.731 158.968,196.652 158.058,196.708 152.894 C 196.778 146.552,196.589 145.940,195.042 147.487 M115.053 162.561 C 115.053 170.155,115.183 176.450,115.343 176.548 C 115.502 176.647,116.108 176.636,116.690 176.525 L 117.747 176.323 117.646 162.658 L 117.546 148.993 116.299 148.873 L 115.053 148.753 115.053 162.561 M117.354 162.563 L 117.354 175.941 116.395 176.125 L 115.436 176.308 115.436 162.746 L 115.436 149.185 116.395 149.185 L 117.354 149.185 117.354 162.563 M196.357 151.294 C 196.357 153.148,196.264 153.404,195.590 153.404 C 194.916 153.404,194.823 153.148,194.823 151.294 C 194.823 149.441,194.916 149.185,195.590 149.185 C 196.264 149.185,196.357 149.441,196.357 151.294 M209.396 151.294 C 209.396 153.148,209.303 153.404,208.629 153.404 C 207.955 153.404,207.862 153.148,207.862 151.294 C 207.862 149.441,207.955 149.185,208.629 149.185 C 209.303 149.185,209.396 149.441,209.396 151.294 M155.571 170.511 C 155.685 171.754,156.174 173.634,156.659 174.688 C 157.143 175.743,157.740 177.349,157.986 178.256 C 158.231 179.164,158.664 179.995,158.948 180.104 C 159.232 180.213,159.575 180.894,159.711 181.617 C 159.847 182.340,160.381 183.389,160.899 183.947 C 161.417 184.506,161.841 185.176,161.841 185.436 C 161.841 185.695,162.128 186.145,162.478 186.434 C 162.829 186.724,163.404 187.434,163.757 188.012 C 164.109 188.590,165.419 189.925,166.667 190.979 C 167.915 192.033,169.417 193.329,170.006 193.859 C 170.595 194.389,171.328 194.823,171.636 194.823 C 171.944 194.823,172.196 195.085,172.196 195.406 C 172.196 195.727,172.670 196.201,173.250 196.459 C 173.830 196.717,174.619 197.318,175.004 197.793 C 175.388 198.269,175.957 198.658,176.268 198.658 C 176.578 198.658,177.262 199.087,177.787 199.613 C 178.313 200.138,179.146 200.669,179.639 200.793 C 180.133 200.916,180.727 201.436,180.960 201.947 C 181.193 202.458,181.622 202.876,181.914 202.876 C 182.206 202.876,183.096 203.394,183.893 204.027 C 184.689 204.660,185.650 205.177,186.029 205.177 C 186.407 205.177,186.824 205.514,186.954 205.925 C 187.085 206.336,187.564 206.791,188.020 206.935 C 188.476 207.080,189.343 207.693,189.948 208.297 C 190.552 208.902,191.464 209.396,191.976 209.396 C 193.264 209.396,193.322 211.180,192.042 211.426 C 191.418 211.547,191.524 211.607,192.426 211.645 C 194.244 211.721,194.269 209.724,192.462 208.790 C 191.796 208.445,191.063 208.010,190.832 207.822 C 189.024 206.350,186.128 204.410,185.738 204.410 C 185.476 204.410,185.077 204.065,184.851 203.643 C 184.626 203.221,184.204 202.876,183.915 202.876 C 183.626 202.876,182.691 202.315,181.836 201.630 C 180.309 200.405,178.950 199.410,176.205 197.507 C 175.444 196.980,174.015 195.893,173.029 195.091 C 172.044 194.289,170.761 193.254,170.179 192.790 C 166.192 189.611,160.307 182.666,160.307 181.140 C 160.307 181.049,159.721 179.559,159.006 177.831 C 158.291 176.103,157.317 173.394,156.842 171.812 C 155.730 168.107,155.313 167.680,155.571 170.511 M142.587 191.709 C 142.689 205.738,142.636 207.453,142.080 208.009 C 141.541 208.548,140.168 208.630,131.612 208.635 C 125.916 208.638,121.522 208.797,121.189 209.012 C 119.830 209.891,141.485 209.477,142.908 208.598 L 144.199 207.799 144.199 193.434 C 144.199 179.171,143.904 176.034,142.562 176.030 C 142.513 176.030,142.525 183.086,142.587 191.709 M246.422 204.356 C 246.044 205.546,246.586 206.328,247.788 206.328 C 248.398 206.328,248.897 206.155,248.897 205.944 C 248.897 205.733,248.361 205.561,247.705 205.561 C 246.625 205.561,246.536 205.471,246.754 204.602 C 247.032 203.495,246.759 203.293,246.422 204.356 M115.179 209.620 C 114.757 210.720,115.346 217.975,115.977 219.451 C 116.482 220.632,116.587 222.588,116.587 230.847 C 116.587 240.311,116.624 240.837,117.329 241.214 C 117.801 241.466,123.109 241.611,131.927 241.611 C 140.746 241.611,146.054 241.755,146.526 242.008 C 147.229 242.384,147.267 242.906,147.267 251.961 C 147.267 260.863,147.520 263.470,148.384 263.471 C 148.734 263.472,148.415 242.227,148.060 241.869 C 147.265 241.067,143.825 240.861,131.101 240.853 L 117.427 240.844 117.277 228.667 C 117.195 221.970,117.265 216.327,117.432 216.127 C 117.600 215.926,117.705 214.287,117.665 212.483 C 117.607 209.866,117.564 209.650,117.454 211.409 C 117.325 213.456,117.248 213.615,116.376 213.615 C 115.148 213.615,114.900 209.592,116.107 209.277 C 116.736 209.112,116.736 209.099,116.095 209.057 C 115.720 209.032,115.307 209.286,115.179 209.620 M248.473 210.753 C 248.065 212.149,248.748 213.231,250.036 213.231 C 250.906 213.231,251.198 213.055,251.198 212.530 C 251.198 211.974,250.967 211.864,250.077 211.994 C 249.083 212.140,248.941 212.035,248.828 211.065 C 248.720 210.142,248.665 210.093,248.473 210.753 M196.165 210.844 C 195.743 210.932,195.237 211.157,195.040 211.344 C 194.843 211.531,195.239 211.524,195.923 211.328 C 197.244 210.949,197.327 211.023,197.628 212.848 C 197.763 213.665,197.794 213.630,197.838 212.607 C 197.898 211.248,197.291 210.609,196.165 210.844 M200.959 216.135 C 200.959 217.329,201.949 217.840,203.777 217.590 C 205.455 217.360,205.510 217.385,205.665 218.456 L 205.824 219.559 205.788 218.408 C 205.760 217.503,205.559 217.231,204.845 217.130 C 204.345 217.059,203.852 216.672,203.746 216.267 C 203.496 215.311,200.959 215.190,200.959 216.135 M157.747 216.191 C 155.603 216.459,155.620 216.342,155.797 229.996 C 155.965 242.935,156.252 245.328,158.028 248.605 C 158.227 248.971,158.389 249.704,158.389 250.234 C 158.389 250.836,158.606 251.198,158.965 251.198 C 159.643 251.198,159.787 248.712,159.133 248.308 C 158.472 247.899,157.966 246.210,157.587 243.145 C 157.391 241.563,157.069 239.060,156.871 237.584 C 156.129 232.045,156.371 217.530,157.214 217.080 C 157.672 216.834,162.175 216.672,169.006 216.656 C 175.085 216.641,180.403 216.480,180.825 216.299 C 181.574 215.977,160.253 215.877,157.747 216.191 M207.478 222.819 C 207.478 224.111,209.096 224.537,209.547 223.363 C 210.029 222.106,209.792 221.668,208.629 221.668 C 207.606 221.668,207.478 221.796,207.478 222.819 M251.287 224.290 C 250.912 224.528,250.824 226.650,250.904 233.574 L 251.007 242.549 251.897 242.548 L 252.787 242.548 252.856 233.455 C 252.910 226.187,252.822 224.322,252.414 224.165 C 251.790 223.926,251.875 223.917,251.287 224.290 M252.429 233.784 C 252.491 237.878,252.401 241.228,252.230 241.228 C 252.060 241.227,252.016 241.382,252.132 241.571 C 252.249 241.759,252.099 242.008,251.798 242.124 C 251.337 242.301,251.246 241.059,251.214 234.118 C 251.180 226.987,251.251 225.931,251.747 226.121 C 252.220 226.303,252.337 227.615,252.429 233.784 M209.542 227.978 C 209.210 228.841,209.667 229.254,210.729 229.051 C 211.623 228.880,211.701 228.979,211.749 230.348 C 211.784 231.334,211.859 231.525,211.974 230.918 C 212.458 228.361,210.365 225.832,209.542 227.978 M211.697 242.533 C 211.697 243.034,211.436 243.169,210.642 243.076 C 209.906 242.990,209.588 243.126,209.588 243.528 C 209.588 244.638,211.637 244.475,211.921 243.343 C 212.060 242.792,212.066 242.235,211.935 242.104 C 211.804 241.973,211.697 242.166,211.697 242.533 M196.363 246.728 C 196.359 247.117,196.704 247.526,197.128 247.637 C 197.552 247.748,198.002 248.249,198.128 248.751 C 198.302 249.445,198.601 249.652,199.370 249.612 C 200.240 249.567,200.264 249.537,199.544 249.397 C 198.971 249.286,198.666 248.907,198.585 248.206 C 198.507 247.537,198.198 247.128,197.699 247.035 C 197.277 246.956,196.805 246.695,196.650 246.456 C 196.474 246.185,196.366 246.287,196.363 246.728 M202.600 249.180 C 203.609 249.259,205.162 249.258,206.052 249.178 C 206.942 249.097,206.117 249.032,204.219 249.034 C 202.320 249.035,201.592 249.101,202.600 249.180 M248.986 252.820 C 248.252 253.706,248.865 255.411,249.887 255.327 C 250.680 255.261,251.658 253.401,251.139 252.944 C 250.618 252.485,249.324 252.410,248.986 252.820 M160.027 256.158 C 160.057 256.565,160.219 256.813,160.386 256.710 C 160.554 256.607,160.690 256.715,160.690 256.951 C 160.690 257.187,160.863 257.273,161.074 257.143 C 161.775 256.709,161.506 255.417,160.714 255.417 C 160.216 255.417,159.989 255.661,160.027 256.158 M161.533 260.403 C 161.608 261.385,161.777 261.553,162.689 261.553 C 163.621 261.553,163.758 261.406,163.758 260.403 C 163.758 259.379,163.631 259.252,162.602 259.252 C 161.553 259.252,161.453 259.359,161.533 260.403 M146.527 267.570 C 146.304 268.374,146.139 269.463,146.160 269.990 C 146.186 270.630,146.321 270.406,146.565 269.316 C 146.893 267.851,147.029 267.701,147.890 267.857 C 148.699 268.004,148.831 267.899,148.730 267.189 C 148.507 265.622,146.995 265.884,146.527 267.570 M237.925 267.853 C 237.810 268.154,237.791 268.801,237.885 269.291 C 238.017 269.983,238.066 269.909,238.107 268.960 C 238.153 267.882,238.306 267.720,239.406 267.583 L 240.652 267.429 239.394 267.367 C 238.612 267.329,238.056 267.513,237.925 267.853 M169.963 268.751 C 170.087 270.377,172.196 270.418,172.196 268.795 C 172.196 267.821,172.058 267.689,171.039 267.689 C 170.012 267.689,169.891 267.808,169.963 268.751 M183.126 273.858 C 182.468 274.168,182.510 274.199,183.413 274.076 C 184.352 273.948,184.468 274.053,184.468 275.029 C 184.468 275.633,184.640 276.127,184.851 276.127 C 185.493 276.127,185.293 273.930,184.628 273.675 C 184.295 273.547,183.993 273.454,183.957 273.469 C 183.922 273.484,183.547 273.659,183.126 273.858 M191.563 275.750 C 190.956 276.017,191.077 276.071,192.138 276.011 C 193.585 275.929,194.345 277.381,193.226 278.091 C 192.873 278.315,193.042 278.418,193.768 278.422 C 194.687 278.427,194.823 278.279,194.823 277.268 C 194.823 275.713,193.281 274.996,191.563 275.750 M215.328 276.318 C 215.229 276.635,215.065 277.159,214.963 277.483 C 214.735 278.211,215.613 278.587,216.827 278.282 C 218.036 277.978,218.106 276.290,216.922 275.972 C 215.711 275.647,215.525 275.688,215.328 276.318 " stroke="none" fill="#848484" fill-rule="evenodd"></path><path id="path3" d="M193.110 111.895 C 193.962 112.501,193.490 113.713,192.145 114.369 C 190.253 115.291,187.836 115.253,186.961 114.286 C 185.747 112.945,182.118 113.173,182.392 114.573 C 182.807 116.697,179.777 118.174,178.523 116.459 C 177.844 115.531,176.904 115.660,176.897 116.683 C 176.881 118.779,176.996 118.736,173.634 117.908 C 172.635 117.662,172.592 117.706,172.805 118.769 C 173.121 120.351,172.218 121.067,170.698 120.437 C 169.040 119.750,167.775 120.039,167.831 121.093 C 167.856 121.568,167.727 121.956,167.544 121.956 C 167.360 121.956,167.210 122.525,167.210 123.221 C 167.210 125.136,164.277 126.534,163.629 124.928 C 163.522 124.664,163.422 124.837,163.405 125.312 C 163.382 125.968,163.146 126.174,162.416 126.174 C 161.316 126.174,161.155 127.111,161.893 129.227 C 162.399 130.678,161.859 131.307,160.403 130.965 C 159.357 130.719,159.240 131.645,160.105 133.312 C 160.883 134.811,160.126 135.978,158.427 135.897 C 156.949 135.827,156.686 137.894,158.006 139.214 C 159.541 140.749,158.186 147.491,156.358 147.418 L 155.321 147.376 155.321 156.549 C 155.321 162.566,155.453 165.640,155.705 165.484 C 155.916 165.354,156.088 165.526,156.088 165.868 C 156.088 166.209,155.916 166.382,155.705 166.251 C 155.487 166.117,155.321 166.439,155.321 166.996 C 155.321 167.778,155.509 167.977,156.249 167.977 C 157.279 167.977,157.924 169.488,158.788 173.921 C 159.034 175.187,159.455 176.481,159.723 176.798 C 159.991 177.114,160.428 178.063,160.695 178.907 C 160.962 179.751,161.497 180.893,161.885 181.446 C 162.272 181.998,162.748 182.870,162.944 183.384 C 163.383 184.539,164.355 185.691,167.785 189.119 C 171.296 192.628,172.024 193.289,172.381 193.289 C 172.544 193.289,173.329 193.849,174.125 194.535 C 175.579 195.788,176.934 196.825,178.509 197.891 C 180.489 199.230,182.457 200.623,183.893 201.702 C 185.752 203.099,186.710 203.755,189.453 205.509 C 190.614 206.251,191.622 207.002,191.694 207.178 C 191.766 207.354,192.399 207.737,193.101 208.031 C 193.803 208.324,194.570 208.924,194.805 209.364 C 195.088 209.891,195.611 210.163,196.343 210.163 C 197.762 210.163,198.658 211.064,198.658 212.491 C 198.658 213.516,198.774 213.615,199.977 213.615 C 200.703 213.615,201.404 213.787,201.534 213.998 C 201.664 214.209,202.188 214.382,202.698 214.382 C 203.248 214.382,203.866 214.748,204.215 215.281 C 204.539 215.776,205.234 216.376,205.758 216.615 C 206.511 216.958,206.711 217.334,206.711 218.400 C 206.711 219.143,206.884 219.751,207.095 219.751 C 207.306 219.751,207.478 219.986,207.478 220.273 C 207.478 220.623,207.794 220.734,208.439 220.611 C 210.228 220.269,211.348 222.443,209.971 223.586 C 208.936 224.445,209.268 225.442,210.634 225.575 C 212.803 225.786,213.814 230.290,212.081 232.023 C 211.416 232.688,211.314 233.301,211.314 236.625 C 211.314 239.949,211.416 240.562,212.081 241.227 C 213.658 242.805,212.735 245.829,210.677 245.829 C 209.794 245.829,209.396 246.008,209.396 246.405 C 209.396 246.763,209.034 246.980,208.437 246.980 C 207.628 246.980,207.478 247.159,207.478 248.130 L 207.478 249.281 204.395 249.281 C 201.891 249.281,201.112 249.428,200.251 250.065 C 199.084 250.928,198.048 250.765,197.699 249.663 C 197.577 249.280,197.053 248.688,196.533 248.348 C 195.462 247.645,195.330 246.702,196.153 245.615 C 196.919 244.602,196.984 239.134,196.226 239.425 C 194.928 239.923,194.842 239.200,194.812 227.500 L 194.781 215.916 188.600 215.916 C 183.251 215.916,182.319 216.006,181.678 216.587 C 181.018 217.184,179.691 217.279,169.567 217.450 L 158.198 217.641 158.247 227.996 C 158.307 240.608,158.748 245.654,159.962 247.618 C 160.791 248.960,160.800 249.064,160.183 250.139 C 159.057 252.101,159.310 253.812,160.748 253.955 C 162.463 254.125,162.979 255.117,162.128 256.606 C 161.196 258.237,161.275 258.485,162.723 258.485 C 164.138 258.485,164.909 259.057,164.909 260.108 C 164.909 260.494,165.182 260.915,165.516 261.043 C 166.017 261.235,166.077 261.667,165.862 263.524 L 165.601 265.772 166.811 265.772 C 167.521 265.772,167.924 265.931,167.785 266.155 C 167.655 266.366,167.731 266.539,167.954 266.539 C 168.178 266.539,168.360 266.366,168.360 266.155 C 168.360 265.944,168.695 265.772,169.105 265.772 C 169.514 265.772,169.956 265.944,170.086 266.155 C 170.217 266.366,170.732 266.539,171.232 266.539 C 172.540 266.539,173.447 267.598,173.255 268.902 C 173.148 269.631,173.263 269.990,173.604 269.990 C 173.891 269.990,174.113 270.408,174.113 270.949 C 174.113 271.898,174.149 271.908,177.416 271.908 L 180.720 271.908 180.551 273.058 C 180.397 274.105,180.480 274.209,181.466 274.209 C 182.062 274.209,182.550 274.033,182.550 273.817 C 182.550 273.602,182.975 273.232,183.493 272.996 C 184.855 272.376,186.385 273.428,186.385 274.985 C 186.385 276.185,190.138 276.807,190.810 275.719 C 192.034 273.739,197.542 275.234,197.295 277.479 L 197.191 278.428 205.115 278.422 C 209.473 278.419,212.867 278.289,212.656 278.134 C 211.818 277.519,212.285 276.319,213.615 275.669 C 215.294 274.848,216.450 274.809,217.066 275.551 C 217.416 275.973,218.344 276.127,220.540 276.127 L 223.537 276.127 223.657 274.880 C 223.742 274.004,223.948 273.674,224.353 273.768 C 224.669 273.843,225.920 273.996,227.133 274.109 L 229.338 274.316 229.338 273.159 C 229.338 271.760,230.019 271.123,231.064 271.545 C 232.770 272.232,233.501 271.981,233.629 270.662 C 233.754 269.357,234.672 269.058,236.337 269.781 C 236.882 270.017,237.009 269.879,237.009 269.047 C 237.009 267.642,237.663 266.539,238.497 266.539 C 238.878 266.539,239.499 266.198,239.876 265.782 C 240.253 265.365,240.872 264.926,241.252 264.805 C 241.632 264.684,242.579 263.628,243.356 262.457 C 244.600 260.583,244.898 260.348,245.848 260.487 C 246.863 260.636,247.841 259.498,246.976 259.175 C 245.914 258.778,246.458 257.143,247.651 257.147 C 249.052 257.151,249.468 255.601,248.322 254.650 C 246.875 253.449,248.267 249.868,250.078 250.134 L 251.198 250.299 251.198 246.706 C 251.198 243.681,251.074 242.945,250.409 242.046 C 249.303 240.550,249.403 225.698,250.527 224.458 C 251.549 223.330,251.540 215.323,250.517 215.870 C 249.436 216.448,248.591 215.692,247.965 213.585 C 247.387 211.636,247.650 209.779,248.504 209.779 C 248.721 209.779,248.897 209.285,248.897 208.682 C 248.897 207.739,248.762 207.599,247.940 207.689 C 246.139 207.887,244.765 205.146,246.030 203.881 C 246.554 203.357,246.540 203.257,245.899 202.913 C 245.505 202.703,244.489 201.611,243.641 200.488 C 240.393 196.187,236.823 192.665,231.831 188.840 C 230.566 187.870,229.444 186.945,229.338 186.784 C 229.233 186.624,228.586 186.205,227.900 185.854 C 227.215 185.503,226.654 185.043,226.654 184.832 C 226.654 184.621,226.266 184.292,225.791 184.100 C 225.316 183.908,223.979 183.055,222.819 182.205 C 219.229 179.572,216.919 178.031,215.820 177.534 C 215.240 177.272,214.765 176.907,214.765 176.723 C 214.765 176.538,214.032 176.045,213.135 175.628 C 211.437 174.836,209.474 173.558,207.897 172.215 C 207.389 171.782,206.766 171.429,206.512 171.429 C 205.769 171.429,201.680 168.177,199.037 165.484 C 196.851 163.258,196.014 161.957,195.561 160.086 C 195.309 159.047,194.781 157.659,194.388 157.002 C 192.556 153.940,193.611 144.966,195.803 144.966 C 196.589 144.966,196.740 144.780,196.740 143.816 C 196.740 142.793,196.868 142.665,197.891 142.665 C 198.862 142.665,199.041 142.516,199.041 141.707 C 199.041 140.762,199.089 140.748,202.205 140.736 C 204.377 140.727,205.602 140.547,206.114 140.160 C 207.736 138.933,209.005 140.194,208.032 142.069 C 207.309 143.462,207.297 143.432,208.615 143.432 C 210.727 143.432,211.226 147.506,210.370 157.758 C 210.114 160.824,210.155 161.600,210.588 161.875 C 211.285 162.316,246.241 162.316,246.939 161.874 C 247.862 161.290,247.286 145.779,246.243 143.141 C 245.254 140.638,245.251 140.176,246.213 139.214 C 246.796 138.631,246.973 137.963,246.950 136.433 C 246.933 135.326,246.832 134.636,246.726 134.899 C 246.410 135.682,244.770 135.446,244.125 134.526 C 243.346 133.414,243.364 131.594,244.163 130.711 C 244.764 130.046,244.737 130.010,243.647 130.010 C 242.517 130.010,241.227 129.029,241.227 128.171 C 241.227 127.932,240.882 127.551,240.460 127.325 C 240.038 127.099,239.693 126.691,239.693 126.417 C 239.693 125.871,236.910 123.490,236.273 123.490 C 235.617 123.490,234.710 121.788,234.884 120.883 C 235.069 119.924,234.778 119.848,233.373 120.488 C 232.111 121.063,231.509 120.526,231.556 118.866 C 231.588 117.742,231.519 117.675,230.560 117.912 C 227.596 118.646,227.468 118.634,227.211 117.608 C 227.076 117.070,227.078 116.448,227.216 116.225 C 227.533 115.711,223.815 115.670,222.869 116.177 C 221.837 116.729,221.161 116.072,221.360 114.712 L 221.535 113.519 218.726 113.519 C 216.427 113.519,215.776 113.658,215.149 114.286 C 214.222 115.213,213.766 115.230,211.047 114.439 C 209.043 113.857,208.945 113.770,209.100 112.713 L 209.263 111.601 200.988 111.607 C 196.437 111.610,192.892 111.740,193.110 111.895 M74.017 194.815 L 74.017 276.127 110.451 276.127 L 146.884 276.127 146.884 274.155 C 146.884 272.721,146.701 272.050,146.213 271.692 C 145.638 271.270,145.569 270.742,145.731 268.006 C 145.835 266.250,145.921 259.808,145.923 253.691 L 145.925 242.570 131.526 242.378 C 118.760 242.208,117.013 242.111,116.121 241.527 L 115.115 240.867 114.883 230.021 C 114.755 224.056,114.558 216.962,114.446 214.256 C 114.205 208.466,115.042 206.756,117.107 208.821 C 117.883 209.596,119.619 209.548,120.527 208.725 C 121.180 208.133,122.452 208.031,131.295 207.862 L 141.323 207.670 141.423 191.850 L 141.523 176.031 129.690 176.031 C 118.343 176.031,117.828 176.062,117.162 176.798 C 116.377 177.665,115.427 177.785,114.746 177.105 C 113.965 176.323,114.099 149.043,114.888 148.254 C 115.667 147.475,115.899 147.493,117.081 148.423 C 118.028 149.168,118.534 149.191,131.419 149.094 L 144.775 148.993 144.775 131.352 L 144.775 113.710 109.396 113.607 L 74.017 113.504 74.017 194.815 M266.251 115.323 L 265.388 115.490 265.388 155.565 C 265.388 195.947,265.350 197.124,264.033 197.124 C 263.411 197.124,263.307 197.805,263.807 198.594 C 264.054 198.983,264.182 198.914,264.341 198.305 C 264.482 197.765,264.749 197.580,265.161 197.738 C 265.714 197.951,265.772 201.659,265.772 237.050 L 265.772 276.127 298.945 276.127 L 332.119 276.127 332.119 258.485 L 332.119 240.844 319.655 240.844 L 307.191 240.844 307.191 200.318 C 307.191 164.104,307.127 159.721,306.591 159.129 C 306.062 158.544,305.996 155.978,306.027 137.163 C 306.062 116.364,306.045 115.849,305.310 115.456 C 304.578 115.064,268.236 114.941,266.251 115.323 M178.161 272.640 C 177.905 273.056,178.295 274.209,178.692 274.209 C 178.846 274.209,178.971 273.950,178.971 273.634 C 178.971 273.317,178.817 273.058,178.629 273.058 C 178.440 273.058,178.393 272.886,178.523 272.675 C 178.654 272.464,178.674 272.291,178.569 272.291 C 178.463 272.291,178.280 272.448,178.161 272.640 " stroke="none" fill="#545454" fill-rule="evenodd"></path><path id="path4" d="M192.138 112.752 C 192.138 113.384,192.095 113.905,192.042 113.908 C 191.166 113.961,189.071 115.020,189.837 115.023 C 192.211 115.032,194.477 112.867,193.110 111.895 C 192.382 111.377,192.138 111.592,192.138 112.752 M209.268 111.857 C 207.556 113.568,212.927 116.043,214.979 114.489 C 215.662 113.972,215.628 113.959,214.573 114.335 C 212.904 114.929,211.485 114.278,211.185 112.782 C 210.960 111.655,209.955 111.170,209.268 111.857 M181.783 114.963 C 181.783 116.468,180.760 117.146,179.316 116.596 C 178.774 116.391,178.332 116.309,178.332 116.414 C 178.332 116.918,180.323 117.307,181.197 116.974 C 182.265 116.568,182.890 114.855,182.215 114.181 C 181.895 113.860,181.783 114.062,181.783 114.963 M221.285 114.996 C 221.285 116.305,221.860 116.642,223.124 116.076 C 224.483 115.466,224.105 114.126,222.531 113.974 C 221.377 113.862,221.285 113.938,221.285 114.996 M266.155 115.012 L 265.197 115.279 265.005 155.567 C 264.846 188.941,264.723 195.964,264.287 196.490 C 263.963 196.879,263.921 197.124,264.177 197.124 C 265.329 197.124,265.388 195.073,265.388 155.586 L 265.388 115.532 266.587 115.292 C 269.063 114.797,304.700 115.021,305.405 115.536 C 306.019 115.986,306.058 117.495,305.957 136.808 C 305.897 148.241,305.966 157.300,306.109 156.938 C 306.253 156.576,306.382 147.086,306.397 135.849 L 306.424 115.417 305.440 115.043 C 304.318 114.617,267.681 114.588,266.155 115.012 M176.207 116.869 C 176.221 117.818,176.102 117.918,175.072 117.822 C 174.192 117.740,174.056 117.807,174.497 118.104 C 175.240 118.606,176.785 118.617,176.840 118.121 C 176.997 116.713,176.918 116.052,176.580 115.939 C 176.366 115.868,176.198 116.286,176.207 116.869 M227.216 116.225 C 226.307 117.695,228.213 119.123,229.722 118.104 C 230.162 117.807,230.027 117.740,229.147 117.822 C 228.118 117.918,227.998 117.817,228.011 116.874 C 228.027 115.796,227.664 115.500,227.216 116.225 M172.201 118.792 C 172.196 119.888,172.069 120.041,171.141 120.064 C 170.112 120.090,170.107 120.100,170.940 120.502 C 172.436 121.224,173.544 119.614,172.579 118.121 C 172.297 117.684,172.206 117.846,172.201 118.792 M231.601 118.327 C 231.088 120.066,232.225 121.283,233.557 120.422 C 234.007 120.131,233.908 120.049,233.102 120.044 C 232.221 120.039,232.054 119.857,231.951 118.792 C 231.857 117.812,231.782 117.713,231.601 118.327 M235.112 120.038 C 234.580 121.317,235.310 123.490,236.273 123.490 C 236.910 123.490,239.693 125.871,239.693 126.417 C 239.693 126.691,240.038 127.099,240.460 127.325 C 240.882 127.551,241.227 127.962,241.227 128.238 C 241.227 129.094,242.575 130.012,243.750 129.957 C 244.791 129.909,244.803 129.893,243.912 129.731 C 242.769 129.523,241.611 128.565,241.611 127.829 C 241.611 127.538,241.364 127.206,241.062 127.090 C 240.761 126.975,240.338 126.376,240.123 125.760 C 239.909 125.144,239.474 124.640,239.157 124.640 C 238.840 124.640,238.443 124.408,238.274 124.123 C 238.105 123.839,237.450 123.362,236.817 123.064 C 235.964 122.663,235.605 122.177,235.429 121.185 C 235.299 120.449,235.156 119.933,235.112 120.038 M166.807 123.298 C 166.649 124.705,166.524 124.852,165.292 125.069 L 163.950 125.307 165.150 125.357 C 166.660 125.421,167.302 124.664,167.120 123.036 C 166.979 121.770,166.978 121.771,166.807 123.298 M160.000 128.936 C 158.858 130.077,160.047 131.530,161.626 130.924 C 162.075 130.752,162.217 130.412,162.069 129.861 C 161.949 129.415,161.849 128.921,161.846 128.763 C 161.838 128.306,160.506 128.430,160.000 128.936 M243.784 131.032 C 243.312 131.505,243.523 133.666,244.125 134.526 C 244.793 135.480,246.402 135.671,246.723 134.834 C 246.881 134.422,246.655 134.325,245.790 134.435 C 244.515 134.596,243.704 133.313,244.024 131.641 C 244.202 130.708,244.175 130.641,243.784 131.032 M159.675 133.942 C 159.728 135.103,159.648 135.187,158.485 135.183 C 156.978 135.179,156.850 135.650,158.262 136.004 C 159.498 136.315,160.738 135.069,160.417 133.840 C 160.080 132.552,159.615 132.616,159.675 133.942 M158.099 139.878 C 158.775 141.727,157.772 144.343,156.321 144.515 C 154.818 144.693,154.944 147.452,156.456 147.457 C 158.044 147.461,159.444 141.014,158.209 139.383 C 157.699 138.709,157.689 138.757,158.099 139.878 M245.765 139.777 C 245.414 140.547,245.498 141.171,246.218 143.132 C 247.336 146.176,247.913 161.257,246.936 161.876 C 246.240 162.317,211.284 162.315,210.588 161.875 C 210.155 161.600,210.114 160.824,210.370 157.758 C 210.846 152.054,210.773 145.302,210.224 144.295 C 209.694 143.325,207.478 143.039,207.478 143.941 C 207.478 144.283,207.839 144.397,208.575 144.289 C 209.905 144.094,210.058 144.504,210.407 149.197 C 210.590 151.672,210.497 152.995,210.023 154.626 C 209.113 157.755,209.173 161.694,210.138 162.211 C 211.458 162.917,246.775 162.742,247.369 162.026 C 248.322 160.877,247.679 144.723,246.593 142.549 C 245.846 141.054,245.772 140.603,246.140 139.796 C 246.382 139.265,246.494 138.830,246.388 138.830 C 246.283 138.830,246.002 139.256,245.765 139.777 M206.178 140.094 C 205.564 140.544,205.603 140.589,206.585 140.574 C 207.534 140.558,207.661 140.688,207.598 141.611 C 207.510 142.889,207.771 142.970,208.212 141.802 C 208.850 140.114,207.594 139.059,206.178 140.094 M194.269 145.819 C 193.332 147.157,193.419 155.383,194.388 157.002 C 194.781 157.659,195.309 159.047,195.561 160.086 C 196.014 161.957,196.851 163.258,199.037 165.484 C 201.680 168.177,205.769 171.429,206.512 171.429 C 206.766 171.429,207.389 171.782,207.897 172.215 C 209.474 173.558,211.437 174.836,213.135 175.628 C 214.032 176.045,214.765 176.538,214.765 176.723 C 214.765 176.907,215.240 177.272,215.820 177.534 C 216.919 178.031,219.229 179.572,222.819 182.205 C 223.979 183.055,225.316 183.908,225.791 184.100 C 226.266 184.292,226.654 184.621,226.654 184.832 C 226.654 185.043,227.215 185.503,227.900 185.854 C 228.586 186.205,229.233 186.624,229.338 186.784 C 229.444 186.945,230.566 187.870,231.831 188.840 C 236.823 192.665,240.393 196.187,243.641 200.488 C 244.489 201.611,245.513 202.707,245.917 202.923 C 246.751 203.370,244.260 200.197,240.506 196.033 C 238.027 193.283,233.678 189.448,229.996 186.764 C 228.987 186.028,227.591 184.995,226.895 184.468 C 226.198 183.941,225.212 183.209,224.703 182.843 C 224.194 182.476,223.001 181.614,222.052 180.927 C 219.615 179.163,215.562 176.572,213.251 175.301 C 212.713 175.005,211.784 174.358,211.188 173.863 C 210.592 173.368,209.889 172.963,209.625 172.963 C 209.362 172.963,208.741 172.531,208.245 172.004 C 207.750 171.477,207.140 171.045,206.889 171.045 C 206.425 171.045,204.468 169.658,202.188 167.713 C 198.204 164.315,196.740 162.370,195.843 159.285 C 195.526 158.196,194.979 156.866,194.628 156.329 C 193.009 153.859,194.172 145.430,196.069 145.884 C 196.466 145.980,196.740 145.825,196.740 145.506 C 196.740 144.639,194.936 144.867,194.269 145.819 M114.888 148.254 C 114.099 149.043,113.965 176.323,114.746 177.105 C 115.303 177.662,116.453 177.708,116.776 177.186 C 116.911 176.968,116.755 176.904,116.410 177.037 C 114.741 177.677,114.669 177.082,114.669 162.608 C 114.669 147.710,114.704 147.463,116.658 148.413 C 117.506 148.824,117.512 148.817,116.801 148.247 C 115.871 147.502,115.639 147.503,114.888 148.254 M156.254 168.716 C 156.622 169.122,157.410 171.063,158.006 173.030 C 160.815 182.301,164.114 187.376,170.679 192.522 C 171.352 193.049,172.374 193.862,172.951 194.329 C 174.088 195.250,177.449 197.745,179.291 199.035 C 179.923 199.478,181.330 200.481,182.417 201.263 C 184.792 202.972,185.415 203.404,187.117 204.515 C 187.836 204.985,189.064 205.801,189.846 206.328 C 190.628 206.855,191.993 207.771,192.880 208.362 C 194.363 209.353,194.470 209.535,194.225 210.663 C 193.966 211.858,193.979 211.872,194.709 211.218 C 196.282 209.808,198.060 210.506,198.375 212.656 L 198.543 213.806 198.600 212.587 C 198.671 211.087,197.810 210.163,196.343 210.163 C 195.611 210.163,195.088 209.891,194.805 209.364 C 194.570 208.924,193.803 208.324,193.101 208.031 C 192.399 207.737,191.766 207.354,191.694 207.178 C 191.622 207.002,190.614 206.251,189.453 205.509 C 186.710 203.755,185.752 203.099,183.893 201.702 C 182.457 200.623,180.489 199.230,178.509 197.891 C 176.934 196.825,175.579 195.788,174.125 194.535 C 173.329 193.849,172.544 193.289,172.381 193.289 C 171.457 193.289,163.557 184.998,162.944 183.384 C 162.748 182.870,162.272 181.998,161.885 181.446 C 161.497 180.893,160.962 179.751,160.695 178.907 C 160.428 178.063,159.991 177.114,159.723 176.798 C 159.455 176.481,159.034 175.187,158.788 173.921 C 157.970 169.724,157.263 167.977,156.381 167.977 C 155.620 167.977,155.615 168.009,156.254 168.716 M141.423 191.850 L 141.323 207.670 131.274 207.862 C 123.355 208.013,121.120 208.167,120.728 208.589 C 120.314 209.034,120.327 209.067,120.805 208.781 C 121.122 208.592,125.954 208.351,131.544 208.245 L 141.707 208.054 141.898 192.042 C 142.004 183.236,141.963 176.030,141.807 176.031 C 141.651 176.031,141.478 183.150,141.423 191.850 M264.341 198.305 C 264.182 198.914,264.054 198.983,263.807 198.594 C 263.628 198.313,263.480 215.373,263.477 236.507 C 263.473 262.126,263.601 275.011,263.861 275.172 C 264.075 275.304,264.151 275.573,264.030 275.770 C 263.908 275.966,264.251 276.127,264.790 276.127 L 265.772 276.127 265.772 237.050 C 265.772 201.659,265.714 197.951,265.161 197.738 C 264.749 197.580,264.482 197.765,264.341 198.305 M245.595 204.635 C 245.143 206.436,248.208 208.958,248.779 207.256 C 248.865 206.998,248.491 206.904,247.791 207.007 C 246.460 207.202,245.621 206.061,245.996 204.566 C 246.123 204.059,246.141 203.643,246.036 203.643 C 245.930 203.643,245.732 204.090,245.595 204.635 M114.694 208.791 C 114.373 209.178,114.301 210.768,114.446 214.256 C 114.558 216.962,114.755 224.056,114.883 230.021 L 115.115 240.867 116.121 241.527 C 117.013 242.111,118.760 242.208,131.526 242.378 L 145.925 242.570 145.925 253.691 C 145.925 259.808,145.814 266.107,145.678 267.689 L 145.430 270.566 145.947 268.073 C 146.763 264.141,146.719 242.544,145.894 242.227 C 145.560 242.099,139.132 241.992,131.608 241.989 C 121.360 241.984,117.689 241.861,116.970 241.499 L 116.012 241.014 115.777 230.670 C 115.649 224.981,115.354 219.549,115.123 218.600 C 114.618 216.528,114.544 209.804,115.017 209.056 C 115.246 208.695,115.705 208.607,116.450 208.780 C 117.255 208.968,117.393 208.933,116.970 208.646 C 116.155 208.095,115.222 208.154,114.694 208.791 M247.753 210.722 C 246.919 212.915,248.955 216.706,250.517 215.870 C 251.576 215.303,251.348 214.485,250.144 214.532 C 248.736 214.587,247.520 212.345,248.112 210.786 C 248.323 210.232,248.409 209.779,248.303 209.779 C 248.198 209.779,247.950 210.204,247.753 210.722 M199.146 214.372 C 199.232 215.517,200.195 215.686,202.491 214.957 C 202.952 214.811,203.395 215.020,203.776 215.564 C 204.095 216.020,204.757 216.593,205.247 216.836 C 205.822 217.122,206.220 217.749,206.373 218.610 L 206.610 219.942 206.661 218.496 C 206.703 217.302,206.545 216.974,205.758 216.615 C 205.234 216.376,204.539 215.776,204.215 215.281 C 203.866 214.748,203.248 214.382,202.698 214.382 C 202.188 214.382,201.664 214.209,201.534 213.998 C 201.064 213.237,199.084 213.547,199.146 214.372 M194.812 216.395 C 194.631 224.315,194.932 239.140,195.278 239.354 C 196.693 240.229,196.774 239.565,196.720 227.549 C 196.674 217.582,196.588 215.948,196.128 216.330 C 195.740 216.652,195.590 216.657,195.590 216.346 C 195.590 215.752,194.825 215.800,194.812 216.395 M157.910 217.331 C 157.147 217.530,156.941 231.609,157.616 237.392 C 158.641 246.170,158.809 247.097,159.556 248.046 C 160.010 248.623,160.239 249.344,160.120 249.821 C 159.929 250.586,159.940 250.584,160.352 249.786 C 160.706 249.101,160.631 248.701,159.941 247.584 C 158.751 245.658,158.307 240.526,158.247 227.996 L 158.198 217.641 169.319 217.441 L 180.441 217.240 169.511 217.198 C 163.500 217.174,158.279 217.234,157.910 217.331 M207.633 220.962 C 207.446 221.264,207.616 221.338,208.168 221.194 C 209.308 220.896,210.333 221.742,210.067 222.762 C 209.948 223.216,210.007 223.490,210.199 223.372 C 210.699 223.063,210.627 221.519,210.086 220.978 C 209.500 220.392,207.991 220.381,207.633 220.962 M250.383 224.602 C 249.548 225.607,249.407 240.754,250.223 241.802 C 250.789 242.530,250.800 242.514,250.434 241.490 C 249.804 239.729,249.942 226.290,250.603 225.024 C 251.228 223.826,251.151 223.678,250.383 224.602 M209.396 225.988 C 209.396 226.357,209.735 226.471,210.496 226.360 C 212.143 226.118,213.133 229.538,212.059 231.761 C 211.668 232.570,211.675 232.573,212.251 231.854 C 212.973 230.953,213.031 227.999,212.354 226.654 C 211.804 225.560,209.396 225.018,209.396 225.988 M212.166 241.871 C 212.817 243.653,212.106 245.062,210.555 245.062 C 209.917 245.062,209.396 245.235,209.396 245.446 C 209.396 245.657,209.972 245.829,210.677 245.829 C 212.609 245.829,213.591 243.122,212.284 241.396 C 211.773 240.721,211.762 240.765,212.166 241.871 M195.987 245.804 C 195.373 246.950,195.502 247.493,196.644 248.576 C 197.224 249.126,197.921 249.855,198.193 250.195 C 198.838 251.003,199.154 250.977,200.245 250.025 L 201.151 249.235 200.046 249.910 C 198.961 250.573,198.930 250.568,198.229 249.645 C 197.836 249.128,197.137 248.325,196.675 247.860 C 195.952 247.133,195.897 246.877,196.279 246.038 C 196.798 244.899,196.569 244.716,195.987 245.804 M248.344 251.156 C 247.659 252.481,247.562 254.107,248.146 254.468 C 248.403 254.627,248.459 254.374,248.304 253.757 C 247.989 252.501,249.244 251.160,250.442 251.474 C 251.108 251.648,251.248 251.545,251.138 250.966 C 250.893 249.676,249.044 249.802,248.344 251.156 M159.540 254.267 C 159.540 254.477,160.047 254.650,160.668 254.650 C 162.072 254.650,162.337 255.053,161.841 256.440 C 161.479 257.452,161.492 257.476,162.030 256.782 C 163.181 255.299,162.489 253.883,160.614 253.883 C 160.023 253.883,159.540 254.056,159.540 254.267 M246.552 257.213 C 246.329 258.798,246.992 259.661,248.193 259.347 C 249.419 259.026,248.988 257.175,247.651 257.022 C 247.071 256.955,246.576 257.041,246.552 257.213 M162.608 258.826 L 163.950 259.065 163.851 261.268 L 163.751 263.471 164.905 263.471 C 166.196 263.471,166.667 261.485,165.484 261.031 C 165.168 260.910,164.909 260.494,164.909 260.108 C 164.909 259.024,164.120 258.480,162.627 258.536 L 161.266 258.586 162.608 258.826 M243.332 262.494 C 242.568 263.645,241.632 264.684,241.252 264.805 C 240.872 264.926,240.253 265.365,239.876 265.782 C 239.499 266.198,238.878 266.539,238.497 266.539 C 237.599 266.539,236.918 267.828,237.119 269.146 C 237.268 270.124,237.280 270.115,237.335 268.983 C 237.399 267.630,237.882 267.103,239.408 266.720 C 239.987 266.575,240.460 266.302,240.460 266.114 C 240.460 265.926,241.216 265.772,242.139 265.772 C 244.218 265.772,244.734 265.196,244.595 263.034 C 244.490 261.400,244.516 261.359,245.741 261.241 C 247.147 261.105,247.059 260.403,245.635 260.403 C 244.952 260.403,244.368 260.933,243.332 262.494 M168.118 266.297 C 167.376 267.145,168.846 267.756,170.649 267.351 C 172.482 266.940,173.129 267.468,172.731 269.052 C 172.544 269.797,172.596 270.025,172.907 269.833 C 174.175 269.049,172.899 266.539,171.232 266.539 C 170.732 266.539,170.217 266.366,170.086 266.155 C 169.756 265.621,168.639 265.702,168.118 266.297 M233.813 269.479 C 233.397 269.895,233.516 271.979,233.941 271.716 C 234.151 271.586,234.324 271.058,234.324 270.543 C 234.324 269.465,235.121 269.308,236.022 270.210 C 236.354 270.541,236.625 270.633,236.625 270.415 C 236.625 269.617,234.411 268.881,233.813 269.479 M229.754 271.646 C 228.747 272.653,229.263 274.212,230.585 274.157 C 231.486 274.119,231.592 274.059,230.968 273.938 C 230.364 273.822,230.105 273.501,230.105 272.867 C 230.105 272.222,230.354 271.924,230.968 271.831 L 231.831 271.700 231.001 271.465 C 230.544 271.336,229.983 271.417,229.754 271.646 M178.460 272.483 C 178.460 272.800,178.603 273.058,178.779 273.058 C 178.955 273.058,179.056 273.266,179.003 273.520 C 178.950 273.775,179.252 273.990,179.674 274.000 C 180.231 274.012,180.474 273.729,180.562 272.963 C 180.670 272.027,180.559 271.908,179.572 271.908 C 178.839 271.908,178.460 272.104,178.460 272.483 M183.103 273.252 C 182.411 273.790,182.435 273.802,183.460 273.436 C 184.854 272.937,185.618 273.500,185.618 275.023 C 185.618 275.630,185.791 276.127,186.002 276.127 C 186.772 276.127,186.403 273.882,185.533 273.272 C 184.470 272.527,184.042 272.524,183.103 273.252 M223.787 273.753 C 223.330 274.209,223.607 276.127,224.130 276.127 C 226.012 276.127,226.705 274.071,224.937 273.733 C 224.415 273.634,223.897 273.642,223.787 273.753 M194.770 275.531 C 195.900 276.052,196.039 276.272,195.889 277.295 C 195.742 278.292,195.830 278.447,196.486 278.350 C 198.463 278.057,197.132 275.536,194.797 275.152 L 193.480 274.935 194.770 275.531 M213.615 275.669 C 211.781 276.566,211.800 278.404,213.644 278.422 C 214.095 278.426,214.207 278.143,214.085 277.311 C 213.901 276.056,215.030 275.139,216.339 275.481 C 216.739 275.586,216.971 275.515,216.852 275.324 C 216.523 274.790,215.102 274.942,213.615 275.669 " stroke="none" fill="#646464" fill-rule="evenodd"></path></g></svg>